<?xml version="1.0" encoding="UTF-8" standalone="no"?>
<svg
   xmlns:dc="http://purl.org/dc/elements/1.1/"
   xmlns:cc="http://creativecommons.org/ns#"
   xmlns:rdf="http://www.w3.org/1999/02/22-rdf-syntax-ns#"
   xmlns:svg="http://www.w3.org/2000/svg"
   xmlns="http://www.w3.org/2000/svg"
   xmlns:sodipodi="http://sodipodi.sourceforge.net/DTD/sodipodi-0.dtd"
   xmlns:inkscape="http://www.inkscape.org/namespaces/inkscape"
   xml:space="preserve"
   version="1.0"
   style="clip-rule:evenodd;fill-rule:evenodd;image-rendering:optimizeQuality;shape-rendering:geometricPrecision;text-rendering:geometricPrecision"
   viewBox="0 0 128 128"
   id="svg22"
   sodipodi:docname="arrow-left.svg"
   inkscape:version="1.0.2-2 (e86c870879, 2021-01-15)"
   width="128"
   height="128"><metadata
   id="metadata28"><rdf:RDF><cc:Work
       rdf:about=""><dc:format>image/svg+xml</dc:format><dc:type
         rdf:resource="http://purl.org/dc/dcmitype/StillImage" /><dc:title></dc:title></cc:Work></rdf:RDF></metadata><defs
   id="defs26" /><sodipodi:namedview
   pagecolor="#ffffff"
   bordercolor="#666666"
   borderopacity="1"
   objecttolerance="10"
   gridtolerance="10"
   guidetolerance="10"
   inkscape:pageopacity="0"
   inkscape:pageshadow="2"
   inkscape:window-width="1920"
   inkscape:window-height="1027"
   id="namedview24"
   showgrid="false"
   inkscape:zoom="1"
   inkscape:cx="104.9504"
   inkscape:cy="291.01501"
   inkscape:window-x="-8"
   inkscape:window-y="22"
   inkscape:window-maximized="1"
   inkscape:current-layer="svg22"
   inkscape:snap-page="true" />
    <path
   d="M 85.402863,2.0450699 C 86.720624,0.72600633 88.47894,0 90.354565,0 c 1.875625,0 3.633942,0.72600633 4.951703,2.0450699 l 4.194413,4.1931102 c 2.729369,2.733277 2.729369,7.1740379 0,9.9021009 L 51.668986,63.97328 99.554121,111.85842 c 1.317759,1.31776 2.045069,3.07607 2.045069,4.95039 0,1.87563 -0.72731,3.63395 -2.045069,4.95301 l -4.194413,4.19311 C 94.041948,127.27269 92.283631,128 90.408006,128 c -1.874322,0 -3.633942,-0.72601 -4.951702,-2.04507 L 28.441997,68.941926 c -1.320367,-1.322973 -2.046374,-3.089111 -2.04116,-4.966039 -0.0039,-1.884749 0.720793,-3.649583 2.04116,-4.971254 L 85.404167,2.0437665 Z"
   id="path20"
   inkscape:label="path1"
   style="stroke-width:0.130342" />
</svg>
