<?xml version="1.0" encoding="UTF-8" standalone="no"?>
<svg
   xmlns:dc="http://purl.org/dc/elements/1.1/"
   xmlns:cc="http://creativecommons.org/ns#"
   xmlns:rdf="http://www.w3.org/1999/02/22-rdf-syntax-ns#"
   xmlns:svg="http://www.w3.org/2000/svg"
   xmlns="http://www.w3.org/2000/svg"
   xmlns:sodipodi="http://sodipodi.sourceforge.net/DTD/sodipodi-0.dtd"
   xmlns:inkscape="http://www.inkscape.org/namespaces/inkscape"
   xml:space="preserve"
   version="1.0"
   style="clip-rule:evenodd;fill-rule:evenodd;image-rendering:optimizeQuality;shape-rendering:geometricPrecision;text-rendering:geometricPrecision"
   viewBox="0 0 127.99999 128"
   id="svg42"
   sodipodi:docname="arrow-right.svg"
   width="128"
   height="128"
   inkscape:version="1.0.2-2 (e86c870879, 2021-01-15)"><metadata
   id="metadata48"><rdf:RDF><cc:Work
       rdf:about=""><dc:format>image/svg+xml</dc:format><dc:type
         rdf:resource="http://purl.org/dc/dcmitype/StillImage" /><dc:title></dc:title></cc:Work></rdf:RDF></metadata><defs
   id="defs46" /><sodipodi:namedview
   pagecolor="#ffffff"
   bordercolor="#666666"
   borderopacity="1"
   objecttolerance="10"
   gridtolerance="10"
   guidetolerance="10"
   inkscape:pageopacity="0"
   inkscape:pageshadow="2"
   inkscape:window-width="1920"
   inkscape:window-height="1027"
   id="namedview44"
   showgrid="false"
   inkscape:zoom="2.8981112"
   inkscape:cx="-35.263471"
   inkscape:cy="98.429357"
   inkscape:window-x="-8"
   inkscape:window-y="22"
   inkscape:window-maximized="1"
   inkscape:current-layer="svg42"
   inkscape:snap-page="true" />
    <path
   d="M 42.594766,2.0446509 C 41.276949,0.72684386 39.51916,0 37.64274,0 35.76847,0 34.008521,0.72684386 32.690704,2.0446509 l -4.194982,4.1928322 c -2.730525,2.7326746 -2.730525,7.1735379 0,9.9019029 L 76.329375,63.97304 28.443951,111.85846 c -1.317807,1.31781 -2.044651,3.07561 -2.044651,4.94988 0,1.87642 0.726844,3.63421 2.044651,4.95419 l 4.194993,4.19282 C 33.956751,127.27317 35.71455,128 37.590969,128 c 1.87427,0 3.63422,-0.72683 4.952027,-2.04465 L 99.558179,68.942326 c 1.319971,-1.322127 2.046811,-3.088546 2.042501,-4.967126 0.004,-1.88505 -0.72037,-3.64932 -2.042501,-4.971437 L 42.594766,2.0424909 Z"
   id="path40"
   style="stroke-width:0.215681" />
</svg>
