<?xml version="1.0" encoding="UTF-8" standalone="no"?>
<svg
   xmlns:dc="http://purl.org/dc/elements/1.1/"
   xmlns:cc="http://creativecommons.org/ns#"
   xmlns:rdf="http://www.w3.org/1999/02/22-rdf-syntax-ns#"
   xmlns:svg="http://www.w3.org/2000/svg"
   xmlns="http://www.w3.org/2000/svg"
   xmlns:sodipodi="http://sodipodi.sourceforge.net/DTD/sodipodi-0.dtd"
   xmlns:inkscape="http://www.inkscape.org/namespaces/inkscape"
   xml:space="preserve"
   width="128"
   height="128"
   version="1.0"
   shape-rendering="geometricPrecision"
   text-rendering="geometricPrecision"
   image-rendering="optimizeQuality"
   fill-rule="evenodd"
   clip-rule="evenodd"
   viewBox="0 0 128 128"
   id="svg233"
   sodipodi:docname="bank.svg"
   inkscape:version="1.0.2-2 (e86c870879, 2021-01-15)"><metadata
   id="metadata239"><rdf:RDF><cc:Work
       rdf:about=""><dc:format>image/svg+xml</dc:format><dc:type
         rdf:resource="http://purl.org/dc/dcmitype/StillImage" /><dc:title></dc:title></cc:Work></rdf:RDF></metadata><defs
   id="defs237" /><sodipodi:namedview
   pagecolor="#ffffff"
   bordercolor="#666666"
   borderopacity="1"
   objecttolerance="10"
   gridtolerance="10"
   guidetolerance="10"
   inkscape:pageopacity="0"
   inkscape:pageshadow="2"
   inkscape:window-width="1920"
   inkscape:window-height="1027"
   id="namedview235"
   showgrid="false"
   inkscape:zoom="0.71106771"
   inkscape:cx="-131.55248"
   inkscape:cy="236.32311"
   inkscape:window-x="-8"
   inkscape:window-y="22"
   inkscape:window-maximized="1"
   inkscape:current-layer="svg233"
   inkscape:document-rotation="0"
   units="px" />
    <path
   fill="#000000"
   fill-rule="nonzero"
   d="m 64,76.79742 c -2.357833,0 -4.268196,-1.910364 -4.268196,-4.268197 0,-2.357836 1.910363,-4.268199 4.268196,-4.268199 2.357836,0 4.2682,1.910363 4.2682,4.268199 h 4.268196 C 72.525058,68.65113 69.891718,65.272141 66.139838,64.29688 v -2.43815 h -4.2682 v 2.43815 c -4.555037,1.170312 -7.297238,5.817141 -6.126925,10.372179 0.969521,3.769092 4.365723,6.396557 8.255287,6.39082 2.357836,0 4.2682,1.910364 4.2682,4.268195 0,2.357837 -1.910364,4.268197 -4.2682,4.268197 -2.357833,0 -4.268196,-1.91036 -4.268196,-4.268197 h -4.268196 c 0.01738,3.878095 2.644677,7.26282 6.396557,8.232341 v 2.438153 h 4.268196 V 93.560415 C 70.683402,92.390106 73.425603,87.743278 72.25529,83.193976 71.285765,79.424884 67.889567,76.79742 64,76.803156 Z m 61.86017,-29.865902 c 1.17605,0 2.1341,-0.952315 2.1341,-2.134098 v -8.530658 c 0,-0.02869 -0.0174,-0.0459 -0.0174,-0.07458 -0.006,-0.235208 -0.0516,-0.464682 -0.13767,-0.682681 0,-0.02294 0,-0.05736 -0.0174,-0.08031 -0.10329,-0.235212 -0.2467,-0.447472 -0.42453,-0.625313 -0.0631,-0.05736 -0.13193,-0.109001 -0.20078,-0.160631 -0.0975,-0.09179 -0.20079,-0.172105 -0.30978,-0.240948 L 65.026892,0.27393229 c -0.642523,-0.35568306 -1.416994,-0.35568306 -2.059517,0 L 1.107207,34.402295 c -0.10899965,0.07458 -0.21226254,0.154893 -0.30978838,0.240948 -0.0688417,0.05163 -0.13194704,0.103263 -0.19505203,0.160631 -0.17784163,0.183577 -0.32126211,0.39584 -0.43026176,0.625313 0,0.02294 0,0.05736 -0.0172104,0.08031 C 0.06884192,35.727498 0.02294734,35.95697 0.0172105,36.19218 0.01721045,36.220867 0,36.238078 0,36.266762 v 8.530658 c 0,1.181783 0.95804949,2.134098 2.1340983,2.134098 H 8.54213 V 110.92578 H 2.1455719 c -1.17604875,0 -2.13409824,0.95805 -2.13409824,2.13409 v 12.79886 c 0,1.17605 0.95804949,2.1341 2.13409824,2.1341 H 125.86591 c 1.17604,0 2.13409,-0.95231 2.13409,-2.1341 v -12.79886 c 0,-1.17604 -0.95805,-2.13409 -2.13409,-2.13409 h -6.39656 V 46.931518 h 6.39656 z M 64,4.5708129 117.5762,34.132664 H 10.418072 L 63.994263,4.5708129 Z M 123.72607,115.18824 v 8.53066 H 4.2681967 v -8.53066 z M 12.804589,110.92004 V 46.925781 h 8.530657 v 63.994259 z m 12.798854,0 V 46.925781 h 76.793117 v 63.994259 z m 81.055577,0 V 46.925781 h 8.53066 V 110.92004 Z M 4.2681967,42.663322 v -4.2682 H 123.72607 v 4.2682 z m 59.7260663,8.530654 c -15.317318,0 -27.731803,12.414487 -27.731803,27.731805 0,15.317318 12.414485,27.731799 27.731803,27.731799 15.317318,0 27.731804,-12.414481 27.731804,-27.731799 C 91.708683,63.619936 79.305844,51.211187 63.994263,51.193976 Z m 0,51.195414 c -12.959481,0 -23.463604,-10.504127 -23.463604,-23.463609 0,-12.959485 10.504123,-23.463608 23.463604,-23.463608 12.959486,0 23.463608,10.504123 23.463608,23.463608 -0.01739,12.953745 -10.509859,23.446399 -23.463608,23.463609 z"
   id="path230"
   style="stroke-width:0.573683" />
</svg>
