<?xml version="1.0" encoding="UTF-8" standalone="no"?>
<svg
   xmlns:dc="http://purl.org/dc/elements/1.1/"
   xmlns:cc="http://creativecommons.org/ns#"
   xmlns:rdf="http://www.w3.org/1999/02/22-rdf-syntax-ns#"
   xmlns:svg="http://www.w3.org/2000/svg"
   xmlns="http://www.w3.org/2000/svg"
   xmlns:sodipodi="http://sodipodi.sourceforge.net/DTD/sodipodi-0.dtd"
   xmlns:inkscape="http://www.inkscape.org/namespaces/inkscape"
   xml:space="preserve"
   width="128"
   height="128"
   version="1.0"
   shape-rendering="geometricPrecision"
   text-rendering="geometricPrecision"
   image-rendering="optimizeQuality"
   fill-rule="evenodd"
   clip-rule="evenodd"
   viewBox="0 0 128 128"
   id="svg285"
   sodipodi:docname="building.svg"
   inkscape:version="1.0.2-2 (e86c870879, 2021-01-15)"><metadata
   id="metadata291"><rdf:RDF><cc:Work
       rdf:about=""><dc:format>image/svg+xml</dc:format><dc:type
         rdf:resource="http://purl.org/dc/dcmitype/StillImage" /><dc:title></dc:title></cc:Work></rdf:RDF></metadata><defs
   id="defs289" /><sodipodi:namedview
   pagecolor="#ffffff"
   bordercolor="#666666"
   borderopacity="1"
   objecttolerance="10"
   gridtolerance="10"
   guidetolerance="10"
   inkscape:pageopacity="0"
   inkscape:pageshadow="2"
   inkscape:window-width="1920"
   inkscape:window-height="1027"
   id="namedview287"
   showgrid="false"
   scale-x="1"
   units="px"
   inkscape:zoom="0.69780936"
   inkscape:cx="-705.45854"
   inkscape:cy="337.89587"
   inkscape:window-x="-8"
   inkscape:window-y="22"
   inkscape:window-maximized="1"
   inkscape:current-layer="svg285" />
    <path
   d="M 30.799931,76.925161 V 13.853214 c 0,-2.012556 1.635647,-3.648203 3.648203,-3.648203 h 3.783321 V 3.6482027 C 38.231455,1.6356464 39.867102,0 41.879658,0 h 44.226457 c 2.012557,0 3.648204,1.6356464 3.648204,3.6482027 v 6.5568083 h 3.783318 c 2.012557,0 3.648205,1.635647 3.648205,3.648203 v 63.071947 l 20.004668,8.284906 c 1.36541,0.561807 2.25435,1.891661 2.25435,3.370854 V 124.3518 c 0,2.01255 -1.63565,3.6482 -3.64821,3.6482 H 12.203343 C 10.190786,128 8.55514,126.36435 8.55514,124.3518 V 88.580921 c 0,-1.472084 0.8889383,-2.809047 2.254347,-3.370854 L 30.814154,76.925161 Z M 89.882324,17.501417 H 38.096337 V 120.7107 h 11.627312 v -18.48991 c 0,-2.01256 1.635647,-3.648203 3.648204,-3.648203 h 21.234954 c 2.012557,0 3.648205,1.635643 3.648205,3.648203 V 120.7107 H 89.882324 Z M 57.695647,67.836655 H 47.127948 c -2.005444,0 -3.648201,-1.635643 -3.648201,-3.6482 V 50.804599 c 0,-2.012556 1.628534,-3.6482 3.648201,-3.6482 h 10.567699 c 2.012557,0 3.648205,1.635644 3.648205,3.6482 v 13.383856 c 0,2.012557 -1.635648,3.6482 -3.648205,3.6482 z m 23.147952,0 H 70.275903 c -2.005447,0 -3.648204,-1.635643 -3.648204,-3.6482 V 50.804599 c 0,-2.012556 1.635648,-3.6482 3.648204,-3.6482 h 10.567696 c 2.012557,0 3.648204,1.635644 3.648204,3.6482 v 13.383856 c 0,2.012557 -1.635647,3.6482 -3.648204,3.6482 z M 57.695647,42.448582 H 47.127948 c -2.012555,0 -3.648201,-1.635648 -3.648201,-3.648205 V 24.164898 c 0,-2.012556 1.635646,-3.648203 3.648201,-3.648203 h 10.567699 c 2.012557,0 3.648205,1.635647 3.648205,3.648203 v 14.635479 c 0,2.012557 -1.635648,3.648205 -3.648205,3.648205 z m 23.147952,0 H 70.275903 c -2.012556,0 -3.648204,-1.635648 -3.648204,-3.648205 V 24.164898 c 0,-2.012556 1.635648,-3.648203 3.648204,-3.648203 h 10.567696 c 2.012557,0 3.648204,1.635647 3.648204,3.648203 v 14.635479 c 0,2.012557 -1.635647,3.648205 -3.648204,3.648205 z M 57.695647,93.217623 H 47.127948 c -2.012555,0 -3.648201,-1.635647 -3.648201,-3.648204 V 76.192677 c 0,-2.012557 1.628534,-3.648204 3.648201,-3.648204 h 10.567699 c 2.012557,0 3.648205,-0.241777 3.648205,1.763656 v 15.26129 c 0,2.005444 -1.635648,3.648204 -3.648205,3.648204 z m 23.147952,0 H 70.275903 c -2.005447,0 -3.648204,-1.635647 -3.648204,-3.648204 v -15.26129 c 0,-2.012557 1.635648,-1.763656 3.648204,-1.763656 h 10.567696 c 2.012557,0 3.648204,1.635647 3.648204,3.648204 v 13.376742 c 0,2.012557 -1.635647,3.648204 -3.648204,3.648204 z M 48.258677,63.050613 H 57.18362 V 51.935328 h -8.924943 z m 23.147955,0 h 8.299129 V 51.935328 H 71.406632 Z M 48.258677,37.662537 h 8.924943 v -12.36691 h -8.924943 z m 23.147955,0 h 8.299129 V 25.295627 H 71.406632 Z M 48.258677,88.431577 H 57.18362 V 77.323406 h -8.924943 z m 23.147955,0 h 8.299129 V 77.323406 H 71.406632 Z M 45.513637,7.2892937 V 10.1979 H 82.443688 V 7.2892937 Z M 15.830211,91.013055 V 120.7036 H 30.79282 V 84.818935 Z M 57.012944,120.7036 h 13.93855 v -14.84172 h -13.93855 z m 55.121286,0 V 91.013055 L 97.171619,84.818935 V 120.7036 Z"
   id="path283"
   style="stroke-width:0.711152" />
</svg>
