<?xml version="1.0" encoding="UTF-8" standalone="no"?>
<svg
   xmlns:dc="http://purl.org/dc/elements/1.1/"
   xmlns:cc="http://creativecommons.org/ns#"
   xmlns:rdf="http://www.w3.org/1999/02/22-rdf-syntax-ns#"
   xmlns:svg="http://www.w3.org/2000/svg"
   xmlns="http://www.w3.org/2000/svg"
   xmlns:sodipodi="http://sodipodi.sourceforge.net/DTD/sodipodi-0.dtd"
   xmlns:inkscape="http://www.inkscape.org/namespaces/inkscape"
   xml:space="preserve"
   width="128"
   height="128"
   version="1.0"
   shape-rendering="geometricPrecision"
   text-rendering="geometricPrecision"
   image-rendering="optimizeQuality"
   fill-rule="evenodd"
   clip-rule="evenodd"
   viewBox="0 0 128 128"
   id="svg310"
   sodipodi:docname="bus.svg"
   inkscape:version="1.0.2-2 (e86c870879, 2021-01-15)"><metadata
   id="metadata316"><rdf:RDF><cc:Work
       rdf:about=""><dc:format>image/svg+xml</dc:format><dc:type
         rdf:resource="http://purl.org/dc/dcmitype/StillImage" /><dc:title></dc:title></cc:Work></rdf:RDF></metadata><defs
   id="defs314" /><sodipodi:namedview
   pagecolor="#ffffff"
   bordercolor="#666666"
   borderopacity="1"
   objecttolerance="10"
   gridtolerance="10"
   guidetolerance="10"
   inkscape:pageopacity="0"
   inkscape:pageshadow="2"
   inkscape:window-width="1920"
   inkscape:window-height="1027"
   id="namedview312"
   showgrid="false"
   units="px"
   inkscape:zoom="1.9844136"
   inkscape:cx="-19.391169"
   inkscape:cy="97.581632"
   inkscape:window-x="-8"
   inkscape:window-y="22"
   inkscape:window-maximized="1"
   inkscape:current-layer="svg310" />
  <path
   d="m 117.46893,60.850085 v 41.332865 c 0,2.6824 -0.96901,5.26554 -2.70589,7.29496 0.0418,0.19328 0.0653,0.3944 0.0731,0.60596 v 7.79644 c 0,4.06146 -1.74996,6.16923 -6.06738,6.16923 H 95.602343 c -4.317427,0 -6.064769,-2.10516 -6.064769,-6.16923 v -4.36444 H 38.470258 v 4.36444 c 0,4.06146 -1.749953,6.16923 -6.067378,6.16923 H 19.236436 c -4.299141,0 -6.067379,-1.97196 -6.067379,-6.06737 v -7.92965 c 0.0079,-0.19327 0.03135,-0.38655 0.07052,-0.57461 -1.736895,-2.02942 -2.705899,-4.61256 -2.705899,-7.29496 V 60.850085 h -4.4663 C 2.7163466,60.850085 0,58.133738 0,54.785319 V 38.986107 c 0,-4.803232 3.8969126,-8.700144 8.7001446,-8.700144 h 1.8335344 v -7.10168 c 0,-10.617258 8.616565,-19.233823 19.233823,-19.233823 h 68.464992 c 10.617256,0 19.233826,8.616565 19.233826,19.233823 v 7.10168 h 1.83353 c 4.80323,0 8.70015,3.8943 8.70015,8.700144 v 15.799212 c 0,3.351031 -2.71635,6.064766 -6.06738,6.064766 h -4.4663 z M 6.8718345,53.983474 H 10.538902 V 37.149961 H 8.7053684 c -1.0134062,0 -1.8335339,0.820128 -1.8335339,1.833534 z M 31.606259,113.51587 h -9.742281 c -0.611178,-0.008 -1.222356,-0.0653 -1.823086,-0.17239 v 3.83946 h 11.565367 z m -9.734445,-6.86662 h 84.264206 c 2.46822,0 4.4663,-2.00069 4.4663,-4.4663 V 23.184283 c 0,-6.824821 -5.53978,-12.367212 -12.367217,-12.367212 h -68.46499 c -6.82482,0 -12.367211,5.539779 -12.367211,12.367212 v 78.998667 c 0,2.46823 2.000693,4.4663 4.4663,4.4663 z M 32.405493,79.282064 c -6.545351,0 -11.332912,-4.787562 -11.332912,-11.332912 V 28.449817 c 0,-6.939744 4.393168,-11.332912 11.332912,-11.332912 h 63.100208 c 6.312899,0 11.432169,5.121881 11.432169,11.432162 v 39.400085 c 0,3.322301 -1.70033,6.197972 -4.19467,8.290081 -1.83876,1.541004 -4.683086,3.042831 -7.138249,3.042831 z m 0,1.034301 c 6.255432,0.0026 11.327687,5.077478 11.33291,11.332911 0.0053,6.260656 -5.074866,11.332904 -11.33291,11.332904 -6.258046,0 -11.332912,-5.072248 -11.332912,-11.332904 0,-6.258045 5.072255,-11.335523 11.332912,-11.332911 z m 63.199458,0 c 6.255439,0.0026 11.330299,5.077478 11.332919,11.332911 0.003,6.260656 -5.07487,11.332904 -11.332919,11.332904 -6.258044,0 -11.33291,-5.074856 -11.33291,-11.332904 0,-6.258045 5.074866,-11.335523 11.33291,-11.332911 z M 27.939191,28.449817 v 39.499335 c 0,2.805151 1.663763,4.466301 4.466302,4.466301 h 63.199458 c 0.914151,0 2.692838,-1.332054 3.296185,-1.969351 0.637295,-0.676475 1.170114,-1.538393 1.170114,-2.494338 V 28.551679 c 0,-2.520455 -2.045092,-4.568163 -4.565549,-4.568163 H 32.405493 c -3.19432,0 -4.466302,1.271981 -4.466302,4.466301 z m 4.466302,67.66576 c 2.468218,0 4.4663,-1.998082 4.4663,-4.466301 0,-2.468219 -2.000693,-4.466301 -4.4663,-4.466301 -2.46822,0 -4.466302,2.000694 -4.466302,4.466301 0,2.468219 2.000695,4.466301 4.466302,4.466301 z m 63.199458,0 c 2.468224,0 4.466299,-1.998082 4.466299,-4.466301 0,-2.468219 -2.000693,-4.466301 -4.466299,-4.466301 -2.468218,0 -4.4663,2.000694 -4.4663,4.466301 0,2.468219 1.998082,4.466301 4.4663,4.466301 z m 12.367209,21.067363 v -3.83946 c -0.60333,0.10709 -1.21452,0.16716 -1.83353,0.17239 h -9.734447 v 3.66707 H 107.96956 Z M 121.13861,53.983474 V 38.983495 c 0,-1.013406 -0.82013,-1.833534 -1.83353,-1.833534 h -1.83354 v 16.833513 z"
   id="path308"
   style="stroke-width:0.261187" />
</svg>
