<?xml version="1.0" encoding="UTF-8" standalone="no"?>
<svg
   xmlns:dc="http://purl.org/dc/elements/1.1/"
   xmlns:cc="http://creativecommons.org/ns#"
   xmlns:rdf="http://www.w3.org/1999/02/22-rdf-syntax-ns#"
   xmlns:svg="http://www.w3.org/2000/svg"
   xmlns="http://www.w3.org/2000/svg"
   xmlns:sodipodi="http://sodipodi.sourceforge.net/DTD/sodipodi-0.dtd"
   xmlns:inkscape="http://www.inkscape.org/namespaces/inkscape"
   xml:space="preserve"
   width="128"
   height="128"
   version="1.0"
   shape-rendering="geometricPrecision"
   text-rendering="geometricPrecision"
   image-rendering="optimizeQuality"
   fill-rule="evenodd"
   clip-rule="evenodd"
   viewBox="0 0 128 128"
   id="svg370"
   sodipodi:docname="camera.svg"
   inkscape:version="1.0.2-2 (e86c870879, 2021-01-15)"><metadata
   id="metadata376"><rdf:RDF><cc:Work
       rdf:about=""><dc:format>image/svg+xml</dc:format><dc:type
         rdf:resource="http://purl.org/dc/dcmitype/StillImage" /><dc:title></dc:title></cc:Work></rdf:RDF></metadata><defs
   id="defs374" /><sodipodi:namedview
   pagecolor="#ffffff"
   bordercolor="#666666"
   borderopacity="1"
   objecttolerance="10"
   gridtolerance="10"
   guidetolerance="10"
   inkscape:pageopacity="0"
   inkscape:pageshadow="2"
   inkscape:window-width="1920"
   inkscape:window-height="1027"
   id="namedview372"
   showgrid="false"
   units="px"
   width="128mm"
   inkscape:zoom="2.9419361"
   inkscape:cx="57.420661"
   inkscape:cy="178.46759"
   inkscape:window-x="-8"
   inkscape:window-y="22"
   inkscape:window-maximized="1"
   inkscape:current-layer="svg370" />
 <g
   id="Слой_x0020_1"
   transform="scale(0.08221888)">
  <metadata
   id="CorelCorpID_0Corel-Layer" />
  <g
   id="_2828841231936">
   <path
   fill="#000000"
   fill-rule="nonzero"
   d="m 1079.9,914.01 c -3.03,0 -6.04,-0.4 -8.94,-1.2 L 436.09,741.59 c -18.18,-4.93 -28.94,-23.64 -24.07,-41.83 l 29.93,-110.9 c 1.86,-6.95 9.01,-11.06 15.96,-9.19 l 675.62,182.16 c 6.95,1.87 11.05,9 9.19,15.94 l -29.92,110.94 c -4.02,14.87 -17.5,25.21 -32.91,25.25 l 0.02,0.05 z M 463.67,608.19 437.21,706.55 c -1.16,4.31 1.39,8.76 5.7,9.93 l 634.82,171.17 c 4.32,1.13 8.74,-1.41 9.93,-5.71 l 26.52,-98.37 z"
   id="path354" />
   <path
   fill="#000000"
   fill-rule="nonzero"
   d="m 1160.82,889.51 c -2.99,0 -5.96,-0.39 -8.84,-1.18 l -48.97,-13.2 c -6.95,-1.87 -11.05,-9.01 -9.18,-15.96 l 23.76,-88.12 c 0.37,-1.39 0.98,-2.71 1.79,-3.91 l 95.26,-140.61 c 3.12,-4.57 8.82,-6.67 14.16,-5.2 l 34.65,9.33 c 9.84,2.65 17.96,9.57 22.18,18.84 4.21,9.28 4.06,19.94 -0.41,29.09 l -93.68,191.83 c -5.77,11.71 -17.69,19.1 -30.73,19.08 z m -38.48,-36.1 36.43,9.8 c 3.74,0.99 7.66,-0.78 9.38,-4.25 l 93.68,-191.85 c 2.25,-4.58 -0.27,-10.07 -5.21,-11.37 l -25.69,-6.95 -88.78,131.13 -19.81,73.48 z"
   id="path356" />
   <path
   fill="#000000"
   fill-rule="nonzero"
   d="m 1130.15,787.46 c -1.14,0 -2.29,-0.15 -3.4,-0.44 L 416.96,595.58 c -18.17,-4.93 -28.9,-23.66 -23.98,-41.83 L 437.94,386.7 c 2.35,-8.74 8.09,-16.18 15.94,-20.7 7.85,-4.51 17.17,-5.72 25.91,-3.36 l 752.8,202.99 c 10.63,2.87 19.23,10.71 23.09,21.03 3.84,10.33 2.45,21.88 -3.73,31.01 l -111.02,163.95 c -2.39,3.62 -6.44,5.81 -10.77,5.84 z M 470.89,387.49 c -3.65,0.01 -6.86,2.46 -7.81,5.99 l -45.04,167.05 c -1.18,4.32 1.39,8.78 5.71,9.92 l 700.83,189.01 105.83,-156.29 c 3.1,-4.61 0.76,-10.9 -4.59,-12.36 L 473.02,387.78 c -0.69,-0.18 -1.41,-0.28 -2.13,-0.28 z"
   id="path358" />
   <path
   fill="#000000"
   fill-rule="nonzero"
   d="m 821.5,916.97 c -1.15,0 -2.28,-0.15 -3.39,-0.44 L 661.75,874.35 c -6.75,-1.82 -10.86,-8.66 -9.29,-15.49 l 15.61,-67.65 c 1.67,-7.19 8.95,-11.56 16.07,-9.63 l 156.77,42.28 c 6.81,1.83 10.92,8.76 9.26,15.61 l -16.02,67.57 c -1.4,5.86 -6.64,10 -12.67,10 l 0.01,-0.09 z m -140.86,-64.45 131.31,35.38 10.02,-42.24 -131.54,-35.49 -9.79,42.34 z"
   id="path360" />
   <path
   fill="#000000"
   fill-rule="nonzero"
   d="M 700.81,1102.34 H 508.49 c -7.18,0 -13.01,-5.83 -13.01,-13.01 v -52.21 c 0,-7.19 5.83,-13.01 13.01,-13.01 h 192.32 c 1.18,-0.01 2.13,-0.96 2.13,-2.14 V 875.48 c -0.01,-8.56 8.12,-14.79 16.39,-12.56 l 52.17,14.07 c 5.68,1.54 9.62,6.68 9.62,12.56 v 132.42 c -0.03,44.35 -35.96,80.31 -80.31,80.36 z m -179.3,-26.02 h 179.3 c 29.97,-0.03 54.26,-24.32 54.29,-54.29 V 899.54 l -26.14,-7.05 v 129.5 c -0.02,15.53 -12.62,28.13 -28.15,28.15 h -179.3 z"
   id="path362" />
   <path
   fill="#000000"
   fill-rule="nonzero"
   d="m 429.51,1215.44 c -7.19,0 -13.02,-5.83 -13.02,-13.02 V 923.97 c 0,-7.19 5.83,-13.01 13.02,-13.01 50.79,0.06 91.93,41.22 91.99,92 v 120.45 c -0.06,50.79 -41.2,91.95 -91.99,92.01 z m 13.01,-277.15 v 249.83 c 30.79,-6.23 52.92,-33.27 52.96,-64.69 v -120.45 c -0.04,-31.4 -22.18,-58.45 -52.96,-64.69 z"
   id="path364" />
  </g>
  <path
   fill="#000000"
   fill-rule="nonzero"
   d="m 778.41,0 c 214.95,0 409.55,87.13 550.42,227.99 140.86,140.86 227.99,335.47 227.99,550.42 0,214.95 -87.13,409.56 -227.99,550.42 -140.86,140.86 -335.47,227.99 -550.42,227.99 -214.95,0 -409.56,-87.13 -550.42,-227.99 C 87.13,1187.97 0,993.36 0,778.41 0,563.46 87.13,368.85 227.99,227.99 368.85,87.13 563.46,0 778.41,0 Z m 532.02,246.39 C 1174.28,110.24 986.18,26.02 778.41,26.02 570.64,26.02 382.54,110.24 246.38,246.39 110.23,382.54 26.01,570.65 26.01,778.41 c 0,207.77 84.22,395.87 220.37,532.02 136.16,136.15 324.26,220.37 532.03,220.37 207.77,0 395.87,-84.22 532.02,-220.37 136.15,-136.15 220.37,-324.26 220.37,-532.02 0,-207.77 -84.22,-395.87 -220.37,-532.02 z"
   id="path367" />
 </g>
</svg>
