<?xml version="1.0" encoding="UTF-8" standalone="no"?>
<svg
   xmlns:dc="http://purl.org/dc/elements/1.1/"
   xmlns:cc="http://creativecommons.org/ns#"
   xmlns:rdf="http://www.w3.org/1999/02/22-rdf-syntax-ns#"
   xmlns:svg="http://www.w3.org/2000/svg"
   xmlns="http://www.w3.org/2000/svg"
   xmlns:sodipodi="http://sodipodi.sourceforge.net/DTD/sodipodi-0.dtd"
   xmlns:inkscape="http://www.inkscape.org/namespaces/inkscape"
   xml:space="preserve"
   width="128"
   height="128"
   version="1.0"
   shape-rendering="geometricPrecision"
   text-rendering="geometricPrecision"
   image-rendering="optimizeQuality"
   fill-rule="evenodd"
   clip-rule="evenodd"
   viewBox="0 0 128 128"
   id="svg425"
   sodipodi:docname="car.svg"
   inkscape:version="1.0.2-2 (e86c870879, 2021-01-15)"><metadata
   id="metadata431"><rdf:RDF><cc:Work
       rdf:about=""><dc:format>image/svg+xml</dc:format><dc:type
         rdf:resource="http://purl.org/dc/dcmitype/StillImage" /><dc:title></dc:title></cc:Work></rdf:RDF></metadata><defs
   id="defs429" /><sodipodi:namedview
   pagecolor="#ffffff"
   bordercolor="#666666"
   borderopacity="1"
   objecttolerance="10"
   gridtolerance="10"
   guidetolerance="10"
   inkscape:pageopacity="0"
   inkscape:pageshadow="2"
   inkscape:window-width="1920"
   inkscape:window-height="1027"
   id="namedview427"
   showgrid="false"
   units="px"
   inkscape:zoom="3.5927481"
   inkscape:cx="-7.1240534"
   inkscape:cy="105.67221"
   inkscape:window-x="-8"
   inkscape:window-y="22"
   inkscape:window-maximized="1"
   inkscape:current-layer="svg425" />
 <g
   id="Слой_x0020_1"
   transform="matrix(0.77953715,0,0,0.77953715,0.00220463,13.337881)"
   style="fill:#000000">
  <metadata
   id="CorelCorpID_0Corel-Layer" />
  <g
   id="_2828877875840"
   style="fill:#000000">
   <path
   fill="#292525"
   fill-rule="nonzero"
   d="M 44.47,95.78 H 6.84 c -1.89,0 -3.42,-1.53 -3.42,-3.42 0,-1.89 1.53,-3.42 3.42,-3.42 H 36.21 L 25.53,78.26 c -1.91,-1.91 -4.56,-3 -7.25,-3 H 6.84 c -1.89,0 -3.42,-1.53 -3.42,-3.42 0,-1.89 1.53,-3.42 3.42,-3.42 h 11.44 c 4.57,0 8.86,1.78 12.1,5.01 L 46.9,89.95 c 0.98,0.98 1.27,2.45 0.74,3.73 -0.53,1.28 -1.78,2.11 -3.16,2.11 z"
   id="path409"
   style="fill:#000000" />
   <path
   fill="#292525"
   fill-rule="nonzero"
   d="M 37.63,129.99 H 17.11 c -5.66,0 -10.26,-4.6 -10.26,-10.26 v -13.68 c 0,-1.89 1.53,-3.42 3.42,-3.42 1.89,0 3.42,1.53 3.42,3.42 v 13.68 c 0,1.89 1.54,3.42 3.42,3.42 h 20.52 c 1.88,0 3.42,-1.53 3.42,-3.42 v -10.26 c 0,-1.89 1.53,-3.42 3.42,-3.42 1.89,0 3.42,1.53 3.42,3.42 v 10.26 c 0,5.66 -4.6,10.26 -10.26,10.26 z"
   id="path411"
   style="fill:#000000" />
   <path
   fill="#292525"
   fill-rule="nonzero"
   d="m 52.12,109.47 h 59.96 l 12.96,-6.48 c 0.47,-0.24 1,-0.36 1.53,-0.36 h 28.08 c 0.94,-4.36 2.7,-13.77 2.7,-23.95 0,-12.88 -3.44,-19.94 -11.84,-24.34 -8.2,-4.28 -29.53,-6.45 -63.42,-6.45 -33.89,0 -55.22,2.17 -63.42,6.45 -8.41,4.4 -11.84,11.45 -11.84,24.34 0,10.17 1.76,19.59 2.71,23.95 h 28.08 c 0.53,0 1.05,0.12 1.53,0.36 l 12.96,6.48 z m 60.77,6.84 H 51.32 c -0.53,0 -1.05,-0.12 -1.53,-0.36 L 36.83,109.47 H 6.85 c -1.55,0 -2.91,-1.04 -3.3,-2.54 C 3.41,106.39 0.01,93.5 0.01,78.68 c 0,-15.41 4.78,-24.79 15.52,-30.4 9.43,-4.93 30.59,-7.23 66.58,-7.23 35.99,0 57.15,2.3 66.58,7.23 10.74,5.61 15.52,14.98 15.52,30.4 0,14.82 -3.39,27.71 -3.54,28.25 -0.4,1.5 -1.75,2.54 -3.3,2.54 h -29.98 l -12.97,6.48 c -0.47,0.24 -1,0.36 -1.53,0.36 z"
   id="path413"
   style="fill:#000000" />
   <path
   fill="#292525"
   fill-rule="nonzero"
   d="m 157.36,95.78 h -37.63 c -1.38,0 -2.63,-0.83 -3.16,-2.11 -0.53,-1.28 -0.23,-2.75 0.74,-3.73 l 16.52,-16.52 c 3.24,-3.23 7.53,-5.01 12.1,-5.01 h 11.44 c 1.89,0 3.42,1.53 3.42,3.42 0,1.89 -1.53,3.42 -3.42,3.42 h -11.44 c -2.7,0 -5.34,1.09 -7.26,3 L 128,88.93 h 29.37 c 1.89,0 3.42,1.53 3.42,3.42 0,1.89 -1.53,3.42 -3.42,3.42 z"
   id="path415"
   style="fill:#000000" />
   <path
   fill="#292525"
   fill-rule="nonzero"
   d="m 63.18,88.94 h 37.84 l 11.4,-13.68 H 51.77 Z m 39.45,6.84 H 61.58 c -1.01,0 -1.98,-0.45 -2.63,-1.23 L 41.85,74.03 c -0.86,-1.02 -1.03,-2.44 -0.47,-3.64 0.57,-1.2 1.77,-1.97 3.1,-1.97 h 75.26 c 1.33,0 2.53,0.77 3.1,1.97 0.56,1.2 0.38,2.62 -0.47,3.64 l -17.1,20.52 c -0.65,0.78 -1.61,1.23 -2.63,1.23 z"
   id="path417"
   style="fill:#000000" />
   <path
   fill="#292525"
   fill-rule="nonzero"
   d="m 147.1,54.73 c -1.31,0 -2.58,-0.77 -3.14,-2.06 C 136.24,34.88 126.79,15.13 124.34,12.85 121.72,10.63 110.57,6.84 85.52,6.84 h -6.84 c -25.05,0 -36.2,3.79 -38.83,6.03 -2.43,2.26 -11.88,22.02 -19.6,39.8 -0.75,1.74 -2.78,2.52 -4.5,1.77 -1.73,-0.75 -2.52,-2.76 -1.78,-4.5 3.89,-8.95 16.92,-38.44 21.45,-42.3 5.64,-4.79 21.81,-7.65 43.27,-7.65 h 6.84 c 21.46,0 37.62,2.86 43.27,7.66 4.53,3.85 17.56,33.35 21.45,42.3 0.75,1.73 -0.05,3.75 -1.78,4.5 -0.44,0.19 -0.91,0.28 -1.36,0.28 z"
   id="path419"
   style="fill:#000000" />
   <path
   fill="#292525"
   fill-rule="nonzero"
   d="m 147.1,129.99 h -20.52 c -5.66,0 -10.26,-4.6 -10.26,-10.26 v -10.26 c 0,-1.89 1.53,-3.42 3.42,-3.42 1.89,0 3.42,1.53 3.42,3.42 v 10.26 c 0,1.89 1.54,3.42 3.42,3.42 h 20.52 c 1.88,0 3.42,-1.53 3.42,-3.42 v -13.68 c 0,-1.89 1.53,-3.42 3.42,-3.42 1.89,0 3.42,1.53 3.42,3.42 v 13.68 c 0,5.66 -4.6,10.26 -10.26,10.26 z"
   id="path421"
   style="fill:#000000" />
  </g>
 </g>
</svg>
