<?xml version="1.0" encoding="UTF-8" standalone="no"?>
<svg
   xmlns:dc="http://purl.org/dc/elements/1.1/"
   xmlns:cc="http://creativecommons.org/ns#"
   xmlns:rdf="http://www.w3.org/1999/02/22-rdf-syntax-ns#"
   xmlns:svg="http://www.w3.org/2000/svg"
   xmlns="http://www.w3.org/2000/svg"
   xmlns:sodipodi="http://sodipodi.sourceforge.net/DTD/sodipodi-0.dtd"
   xmlns:inkscape="http://www.inkscape.org/namespaces/inkscape"
   xml:space="preserve"
   width="128"
   height="128"
   version="1.0"
   shape-rendering="geometricPrecision"
   text-rendering="geometricPrecision"
   image-rendering="optimizeQuality"
   fill-rule="evenodd"
   clip-rule="evenodd"
   viewBox="0 0 128 128"
   id="svg525"
   sodipodi:docname="crane-1.svg"
   inkscape:version="1.0.2-2 (e86c870879, 2021-01-15)"><metadata
   id="metadata531"><rdf:RDF><cc:Work
       rdf:about=""><dc:format>image/svg+xml</dc:format><dc:type
         rdf:resource="http://purl.org/dc/dcmitype/StillImage" /><dc:title></dc:title></cc:Work></rdf:RDF></metadata><defs
   id="defs529" /><sodipodi:namedview
   pagecolor="#ffffff"
   bordercolor="#666666"
   borderopacity="1"
   objecttolerance="10"
   gridtolerance="10"
   guidetolerance="10"
   inkscape:pageopacity="0"
   inkscape:pageshadow="2"
   inkscape:window-width="1920"
   inkscape:window-height="1027"
   id="namedview527"
   showgrid="false"
   units="px"
   inkscape:zoom="0.71106771"
   inkscape:cx="80.639203"
   inkscape:cy="420.15074"
   inkscape:window-x="-8"
   inkscape:window-y="22"
   inkscape:window-maximized="1"
   inkscape:current-layer="svg525" />
 <g
   id="Слой_x0020_1"
   transform="matrix(0.48048048,0,0,0.48048048,0.01039039,0)"
   style="fill:#000000">
  <metadata
   id="CorelCorpID_0Corel-Layer" />
  <path
   fill="#1f1b20"
   d="m 258.93,42.26 h -34.77 v -9.21 c 0,-4.14 -3.35,-7.48 -7.48,-7.48 h -33.39 c -4.13,0 -7.48,3.35 -7.48,7.48 v 9.21 H 113.44 L 90.06,3.61 C 88.7,1.37 86.28,0 83.66,0 H 42.45 C 38.31,0 34.97,3.35 34.97,7.48 V 42.25 H 7.5 c -4.14,0 -7.48,3.35 -7.48,7.48 v 33.39 c 0,4.13 3.35,7.48 7.48,7.48 h 43.12 v 126.92 h -5.03 c -3.13,0 -5.94,1.95 -7.02,4.89 l -12.52,33.91 c -1.8,4.88 1.82,10.08 7.02,10.08 h 100.16 c 5.2,0 8.83,-5.2 7.02,-10.08 l -12.52,-33.91 c -1.09,-2.94 -3.89,-4.89 -7.03,-4.89 h -5.03 V 90.6 h 60.15 v 9.73 c 0,4.14 3.35,7.49 7.48,7.49 h 9.21 v 19.37 l -25.63,36.61 h -8.62 c -4.14,0 -7.49,3.35 -7.49,7.49 v 41.73 c 0,4.13 3.35,7.48 7.49,7.48 h 83.47 c 4.13,0 7.48,-3.35 7.48,-7.48 v -41.73 c 0,-4.14 -3.35,-7.49 -7.48,-7.49 h -8.62 l -25.63,-36.61 v -19.37 h 9.21 c 4.14,0 7.48,-3.35 7.48,-7.49 V 90.6 h 34.77 c 4.14,0 7.48,-3.35 7.48,-7.48 V 49.73 c 0,-4.14 -3.35,-7.48 -7.48,-7.48 z m -24.7,163.28 h -68.5 v -26.76 h 68.5 z m -49.08,-41.73 14.83,-21.19 14.84,21.19 z M 49.93,14.98 h 29.5 l 16.51,27.28 h -0.6 c -15.02,0 -30.05,0 -45.07,0 h -0.34 z m 50.76,143.15 -35.11,20.48 v -28.58 l 35.11,-20.48 z m 21.78,93.32 H 43.79 l 6.99,-18.94 h 64.69 l 6.99,18.94 z M 65.58,217.54 v -21.6 l 35.11,-20.48 v 42.08 z M 100.69,112.22 65.58,132.7 V 90.62 h 35.11 z M 14.98,75.65 V 57.23 h 160.83 v 18.42 h -0.34 c -53.38,0 -106.77,0 -160.15,0 z M 209.2,92.86 H 190.78 V 40.54 h 18.42 z m 41.92,-17.21 c -8.87,0 -17.74,0 -26.61,0 h -0.34 V 57.23 h 27.28 v 18.42 h -0.34 z"
   id="path522"
   style="fill:#000000" />
 </g>
</svg>
