<?xml version="1.0" encoding="UTF-8" standalone="no"?>
<svg
   xmlns:dc="http://purl.org/dc/elements/1.1/"
   xmlns:cc="http://creativecommons.org/ns#"
   xmlns:rdf="http://www.w3.org/1999/02/22-rdf-syntax-ns#"
   xmlns:svg="http://www.w3.org/2000/svg"
   xmlns="http://www.w3.org/2000/svg"
   xmlns:sodipodi="http://sodipodi.sourceforge.net/DTD/sodipodi-0.dtd"
   xmlns:inkscape="http://www.inkscape.org/namespaces/inkscape"
   xml:space="preserve"
   width="128"
   height="128"
   version="1.0"
   shape-rendering="geometricPrecision"
   text-rendering="geometricPrecision"
   image-rendering="optimizeQuality"
   fill-rule="evenodd"
   clip-rule="evenodd"
   viewBox="0 0 128 128"
   id="svg549"
   sodipodi:docname="crane-2.svg"
   inkscape:version="1.0.2-2 (e86c870879, 2021-01-15)"><metadata
   id="metadata555"><rdf:RDF><cc:Work
       rdf:about=""><dc:format>image/svg+xml</dc:format><dc:type
         rdf:resource="http://purl.org/dc/dcmitype/StillImage" /><dc:title></dc:title></cc:Work></rdf:RDF></metadata><defs
   id="defs553" /><sodipodi:namedview
   pagecolor="#ffffff"
   bordercolor="#666666"
   borderopacity="1"
   objecttolerance="10"
   gridtolerance="10"
   guidetolerance="10"
   inkscape:pageopacity="0"
   inkscape:pageshadow="2"
   inkscape:window-width="1920"
   inkscape:window-height="1027"
   id="namedview551"
   showgrid="false"
   units="px"
   inkscape:zoom="0.69733033"
   inkscape:cx="-270.23194"
   inkscape:cy="216.35766"
   inkscape:window-x="-8"
   inkscape:window-y="22"
   inkscape:window-maximized="1"
   inkscape:current-layer="svg549" />
 <g
   id="Слой_x0020_1"
   transform="matrix(0.92832457,0,0,0.92832457,0.00260863,0.40048371)">
  <metadata
   id="CorelCorpID_0Corel-Layer" />
  <path
   fill="#000000"
   d="M 28.47,46.96 5.49,54.98 c -0.49,0.23 -0.9,0.33 -1.45,0.33 -1.77,0 -3.16,-1.09 -3.8,-2.7 L 0.21,52.54 c -0.7,-2.1 0.38,-4.25 2.46,-4.94 l 25.8,-9.05 V 21.23 c 0,-2.14 1.76,-3.9 3.9,-3.9 h 5.91 L 50.81,1.39 50.87,1.33 c 0.65,-0.65 1.64,-1.32 2.57,-1.32 0.16,0 0.31,0 0.47,0 1.18,0 2.22,0.5 3.04,1.32 l 0.06,0.06 12.53,15.94 h 4.74 c 2.14,0 3.9,1.76 3.9,3.9 v 0.24 L 113.37,9.22 125.6,4.52 c 2.08,-0.69 4.48,0.36 5.19,2.48 0.69,2.08 -0.35,4.48 -2.44,5.17 l -6.62,2.48 v 11.38 l 7.88,14.23 h 4.37 c 2.14,0 3.9,1.76 3.9,3.9 v 20.13 c 0,2.14 -1.76,3.9 -3.9,3.9 h -32.31 c -2.14,0 -3.9,-1.76 -3.9,-3.9 V 44.16 c 0,-2.14 1.76,-3.9 3.9,-3.9 h 4.36 l 7.66,-14.23 V 17.69 L 77.95,30.11 v 19.66 c 0,2.14 -1.76,3.9 -3.9,3.9 h -4.06 v 79.44 c 0,2.14 -1.76,3.9 -3.9,3.9 H 40.34 c -2.14,0 -3.9,-1.76 -3.9,-3.9 V 53.67 h -4.06 c -2.14,0 -3.9,-1.76 -3.9,-3.9 v -2.82 z m 101.36,13.43 v -12.1 h -24.27 v 12.1 z m -9.5,-19.9 -2.54,-4.96 -2.67,4.96 h 5.22 z m -76.1,41.29 v 28.69 L 60.13,96.12 44.23,81.77 Z m 2.06,-8.84 15.89,14.15 V 58.6 Z M 44.23,63.89 55.61,53.67 H 44.23 Z m 0,65.09 h 17.95 v -24.27 l -17.95,16.12 z m 9.68,-118.75 -5.45,6.85 h 10.9 z M 36.04,25.11 V 45.64 H 69.91 V 25.11 Z"
   id="path546" />
 </g>
</svg>
