<?xml version="1.0" encoding="UTF-8" standalone="no"?>
<svg
   xmlns:dc="http://purl.org/dc/elements/1.1/"
   xmlns:cc="http://creativecommons.org/ns#"
   xmlns:rdf="http://www.w3.org/1999/02/22-rdf-syntax-ns#"
   xmlns:svg="http://www.w3.org/2000/svg"
   xmlns="http://www.w3.org/2000/svg"
   xmlns:sodipodi="http://sodipodi.sourceforge.net/DTD/sodipodi-0.dtd"
   xmlns:inkscape="http://www.inkscape.org/namespaces/inkscape"
   xml:space="preserve"
   width="128"
   height="128"
   version="1.0"
   shape-rendering="geometricPrecision"
   text-rendering="geometricPrecision"
   image-rendering="optimizeQuality"
   fill-rule="evenodd"
   clip-rule="evenodd"
   viewBox="0 0 127.99999 128"
   id="svg573"
   sodipodi:docname="doc.svg"
   inkscape:version="1.0.2-2 (e86c870879, 2021-01-15)"><metadata
   id="metadata579"><rdf:RDF><cc:Work
       rdf:about=""><dc:format>image/svg+xml</dc:format><dc:type
         rdf:resource="http://purl.org/dc/dcmitype/StillImage" /><dc:title></dc:title></cc:Work></rdf:RDF></metadata><defs
   id="defs577" /><sodipodi:namedview
   pagecolor="#ffffff"
   bordercolor="#666666"
   borderopacity="1"
   objecttolerance="10"
   gridtolerance="10"
   guidetolerance="10"
   inkscape:pageopacity="0"
   inkscape:pageshadow="2"
   inkscape:window-width="1920"
   inkscape:window-height="1027"
   id="namedview575"
   showgrid="false"
   units="px"
   height="128mm"
   inkscape:zoom="0.71106771"
   inkscape:cx="-409.03558"
   inkscape:cy="344.26421"
   inkscape:window-x="-8"
   inkscape:window-y="22"
   inkscape:window-maximized="1"
   inkscape:current-layer="svg573" />
 <g
   id="Слой_x0020_1"
   transform="matrix(0.36419507,0,0,0.36419507,15.285267,3.489e-7)"
   style="fill:#000000">
  <metadata
   id="CorelCorpID_0Corel-Layer" />
  <path
   fill="#1f1b20"
   d="M 264.61,85.47 182.03,2.89 C 180.18,1.04 177.66,0 175.05,0 H 30.53 C 13.7,0 0.01,13.69 0.01,30.52 v 290.42 c 0,16.83 13.69,30.52 30.52,30.52 h 206.46 c 16.83,0 30.52,-13.69 30.52,-30.52 V 92.46 c 0,-2.59 -1.06,-5.15 -2.9,-6.98 z m -79.69,-51.76 48.87,48.86 h -38.1 c -5.94,0 -10.77,-4.83 -10.77,-10.77 V 33.7 Z M 236.98,331.7 H 30.52 c -5.94,0 -10.77,-4.83 -10.77,-10.77 V 30.51 c 0,-5.94 4.83,-10.77 10.77,-10.77 H 165.16 V 71.8 c 0,16.83 13.69,30.52 30.52,30.52 h 52.06 v 218.6 c 0,5.94 -4.83,10.77 -10.77,10.77 z M 195.69,145.89 H 71.82 c -5.45,0 -9.88,4.42 -9.88,9.88 0,5.46 4.42,9.87 9.88,9.87 h 123.87 c 5.45,0 9.88,-4.42 9.88,-9.87 0,-5.46 -4.42,-9.88 -9.88,-9.88 z m 0,41.29 H 71.82 c -5.45,0 -9.88,4.42 -9.88,9.87 0,5.46 4.42,9.88 9.88,9.88 h 123.87 c 5.45,0 9.88,-4.42 9.88,-9.88 0,-5.46 -4.42,-9.87 -9.88,-9.87 z m 0,41.29 H 71.82 c -5.45,0 -9.88,4.42 -9.88,9.88 0,5.45 4.42,9.87 9.88,9.87 h 123.87 c 5.45,0 9.88,-4.42 9.88,-9.87 0,-5.46 -4.42,-9.88 -9.88,-9.88 z M 154.4,269.76 H 71.82 c -5.45,0 -9.88,4.42 -9.88,9.87 0,5.46 4.42,9.88 9.88,9.88 h 82.58 c 5.46,0 9.87,-4.42 9.87,-9.88 0,-5.46 -4.42,-9.87 -9.87,-9.87 z"
   id="path570"
   style="fill:#000000" />
 </g>
</svg>
