<?xml version="1.0" encoding="UTF-8" standalone="no"?>
<svg
   xmlns:dc="http://purl.org/dc/elements/1.1/"
   xmlns:cc="http://creativecommons.org/ns#"
   xmlns:rdf="http://www.w3.org/1999/02/22-rdf-syntax-ns#"
   xmlns:svg="http://www.w3.org/2000/svg"
   xmlns="http://www.w3.org/2000/svg"
   xmlns:sodipodi="http://sodipodi.sourceforge.net/DTD/sodipodi-0.dtd"
   xmlns:inkscape="http://www.inkscape.org/namespaces/inkscape"
   xml:space="preserve"
   width="128"
   height="128"
   version="1.1"
   shape-rendering="geometricPrecision"
   text-rendering="geometricPrecision"
   image-rendering="optimizeQuality"
   fill-rule="evenodd"
   clip-rule="evenodd"
   viewBox="0 0 128 128"
   id="svg686"
   sodipodi:docname="facebook.svg"
   inkscape:version="1.0.2-2 (e86c870879, 2021-01-15)"><metadata
   id="metadata692"><rdf:RDF><cc:Work
       rdf:about=""><dc:format>image/svg+xml</dc:format><dc:type
         rdf:resource="http://purl.org/dc/dcmitype/StillImage" /><dc:title></dc:title></cc:Work></rdf:RDF></metadata><defs
   id="defs690" /><sodipodi:namedview
   pagecolor="#ffffff"
   bordercolor="#666666"
   borderopacity="1"
   objecttolerance="10"
   gridtolerance="10"
   guidetolerance="10"
   inkscape:pageopacity="0"
   inkscape:pageshadow="2"
   inkscape:window-width="1920"
   inkscape:window-height="1027"
   id="namedview688"
   showgrid="false"
   inkscape:zoom="3.0405592"
   inkscape:cx="-95.120313"
   inkscape:cy="35.941391"
   inkscape:window-x="-8"
   inkscape:window-y="22"
   inkscape:window-maximized="1"
   inkscape:current-layer="svg686" />
 <g
   id="Слой_x0020_1"
   style="fill:#000000"
   transform="scale(46.715328)">
  <metadata
   id="CorelCorpID_0Corel-Layer" />
  <path
   fill="#ffffff"
   fill-rule="nonzero"
   d="M 2.74,1.37 C 2.74,0.613 2.127,0 1.37,0 0.613,0 0,0.613 0,1.37 c 0,0.757 0.613,1.37 1.37,1.37 0.008,0 0.016,0 0.024,-0.001 V 1.673 H 1.1 V 1.33 H 1.394 V 1.078 c 0,-0.293 0.179,-0.452 0.44,-0.452 0.125,0 0.233,0.009 0.264,0.013 v 0.306 h -0.18 c -0.142,0 -0.17,0.067 -0.17,0.166 V 1.33 h 0.34 L 2.044,1.673 H 1.748 V 2.687 C 2.321,2.522 2.74,1.995 2.74,1.37 Z"
   id="path683"
   style="fill:#000000" />
 </g>
</svg>
