<?xml version="1.0" encoding="UTF-8" standalone="no"?>
<svg
   xmlns:dc="http://purl.org/dc/elements/1.1/"
   xmlns:cc="http://creativecommons.org/ns#"
   xmlns:rdf="http://www.w3.org/1999/02/22-rdf-syntax-ns#"
   xmlns:svg="http://www.w3.org/2000/svg"
   xmlns="http://www.w3.org/2000/svg"
   xmlns:sodipodi="http://sodipodi.sourceforge.net/DTD/sodipodi-0.dtd"
   xmlns:inkscape="http://www.inkscape.org/namespaces/inkscape"
   xml:space="preserve"
   width="128"
   height="128"
   version="1.0"
   shape-rendering="geometricPrecision"
   text-rendering="geometricPrecision"
   image-rendering="optimizeQuality"
   fill-rule="evenodd"
   clip-rule="evenodd"
   viewBox="0 0 128 128"
   id="svg710"
   sodipodi:docname="factory.svg"
   inkscape:version="1.0.2-2 (e86c870879, 2021-01-15)"><metadata
   id="metadata716"><rdf:RDF><cc:Work
       rdf:about=""><dc:format>image/svg+xml</dc:format><dc:type
         rdf:resource="http://purl.org/dc/dcmitype/StillImage" /><dc:title></dc:title></cc:Work></rdf:RDF></metadata><defs
   id="defs714" /><sodipodi:namedview
   pagecolor="#ffffff"
   bordercolor="#666666"
   borderopacity="1"
   objecttolerance="10"
   gridtolerance="10"
   guidetolerance="10"
   inkscape:pageopacity="0"
   inkscape:pageshadow="2"
   inkscape:window-width="1920"
   inkscape:window-height="1027"
   id="namedview712"
   showgrid="false"
   units="px"
   inkscape:zoom="1.4586004"
   inkscape:cx="42.844767"
   inkscape:cy="99.443035"
   inkscape:window-x="-8"
   inkscape:window-y="22"
   inkscape:window-maximized="1"
   inkscape:current-layer="svg710" />
 <g
   id="Слой_x0020_1"
   transform="matrix(0.30936556,0,0,0.30936556,0.00690634,-0.00690634)"
   style="fill:#000000">
  <metadata
   id="CorelCorpID_0Corel-Layer" />
  <path
   fill="#000000"
   d="m 408.14,246.76 -151.17,-97.34 -0.12,-0.09 c -3.06,-2.22 -8.04,-2.17 -11.44,-0.84 -5.05,1.98 -7.24,6.37 -7.41,11.44 v 74.59 L 111.77,153.21 V 12.35 c 0,-6.86 -5.5,-12.36 -12.36,-12.36 H 12.37 C 5.56,-0.01 0.01,5.54 0.01,12.35 v 389.03 c 0,6.86 5.51,12.36 12.36,12.36 H 401.4 c 6.86,0 12.36,-5.51 12.36,-12.36 V 257.09 c 0,-4.16 -2.12,-8.09 -5.62,-10.35 z M 87.04,389.03 H 24.81 V 24.73 h 62.23 z m 150.95,0 H 111.76 V 182.6 l 126.23,81.31 v 125.11 z m 151.04,0 H 262.8 V 182.6 l 126.23,81.31 V 389.02 Z M 400.27,41.96 c 4.16,0 8.09,-2.15 10.42,-5.38 3.83,-5.65 2.34,-13.33 -3.32,-17.13 C 386.02,5.1 359.49,6.41 335.29,10.66 l -7.88,1.38 C 311.19,14.89 292.49,18.7 276.34,13.99 272.13,12.76 268.05,10.98 264,9.29 258.32,6.92 252.73,4.55 246.74,3.05 234.59,0 222.41,0.55 210.03,1.21 c -7.68,0.41 -15.64,0.93 -23.29,-0.04 -6.81,-0.86 -12.89,4.04 -13.73,10.81 -0.85,6.8 4.03,12.9 10.8,13.74 9.17,1.14 18.26,0.68 27.44,0.14 9.52,-0.56 19.94,-1.27 29.25,1.11 4.69,1.19 9.27,3.15 13.73,5.01 5,2.09 9.94,4.19 15.16,5.68 20.69,5.88 41.62,2.33 62.3,-1.42 l 7.68,-1.39 c 17.06,-2.91 38.93,-5.17 54,4.99 2.05,1.38 4.44,2.12 6.91,2.12 z"
   id="path707"
   style="fill:#000000" />
 </g>
</svg>
