<?xml version="1.0" encoding="UTF-8" standalone="no"?>
<svg
   xmlns:dc="http://purl.org/dc/elements/1.1/"
   xmlns:cc="http://creativecommons.org/ns#"
   xmlns:rdf="http://www.w3.org/1999/02/22-rdf-syntax-ns#"
   xmlns:svg="http://www.w3.org/2000/svg"
   xmlns="http://www.w3.org/2000/svg"
   xmlns:sodipodi="http://sodipodi.sourceforge.net/DTD/sodipodi-0.dtd"
   xmlns:inkscape="http://www.inkscape.org/namespaces/inkscape"
   xml:space="preserve"
   width="128"
   height="128"
   version="1.0"
   shape-rendering="geometricPrecision"
   text-rendering="geometricPrecision"
   image-rendering="optimizeQuality"
   fill-rule="evenodd"
   clip-rule="evenodd"
   viewBox="0 0 128 128"
   id="svg747"
   sodipodi:docname="health.svg"
   inkscape:version="1.0.2-2 (e86c870879, 2021-01-15)"><metadata
   id="metadata753"><rdf:RDF><cc:Work
       rdf:about=""><dc:format>image/svg+xml</dc:format><dc:type
         rdf:resource="http://purl.org/dc/dcmitype/StillImage" /><dc:title></dc:title></cc:Work></rdf:RDF></metadata><defs
   id="defs751" /><sodipodi:namedview
   pagecolor="#ffffff"
   bordercolor="#666666"
   borderopacity="1"
   objecttolerance="10"
   gridtolerance="10"
   guidetolerance="10"
   inkscape:pageopacity="0"
   inkscape:pageshadow="2"
   inkscape:window-width="1920"
   inkscape:window-height="1027"
   id="namedview749"
   showgrid="false"
   units="px"
   inkscape:zoom="1.0056016"
   inkscape:cx="-158.12252"
   inkscape:cy="237.41085"
   inkscape:window-x="-8"
   inkscape:window-y="22"
   inkscape:window-maximized="1"
   inkscape:current-layer="svg747" />
 <g
   id="Слой_x0020_1"
   style="fill:#000000"
   transform="scale(0.03842505)">
  <metadata
   id="CorelCorpID_0Corel-Layer" />
  <g
   id="_2828876956240"
   style="fill:#000000">
   <path
   fill="#292525"
   fill-rule="nonzero"
   d="m 1665.58,3186.68 c -838.8,0 -1521.09,-682.29 -1521.09,-1521.09 0,-838.8 682.29,-1521.09 1521.09,-1521.09 838.8,0 1521.09,682.29 1521.09,1521.09 0,838.8 -682.29,1521.09 -1521.09,1521.09 z M 1665.58,0 C 746.49,0 0,746.5 0,1665.58 c 0,919.09 746.5,1665.58 1665.58,1665.58 919.09,0 1665.58,-746.5 1665.58,-1665.58 C 3331.16,746.49 2584.66,0 1665.58,0 Z"
   id="path741"
   style="fill:#000000" />
   <path
   fill="#292525"
   fill-rule="nonzero"
   d="m 2460.25,1882.31 h -505.7 c -40.12,0 -72.24,32.11 -72.24,72.24 v 505.7 h -433.45 v -505.7 c 0,-40.12 -32.11,-72.24 -72.24,-72.24 h -505.7 v -433.45 h 505.7 c 40.12,0 72.24,-32.11 72.24,-72.24 v -505.7 h 437.47 v 505.7 c 0,40.12 32.11,72.24 72.24,72.24 h 505.7 v 433.45 h -4.01 z m 72.24,-577.94 H 2026.8 V 798.68 c 0,-40.14 -32.11,-72.25 -72.25,-72.25 h -577.92 c -40.14,0 -72.25,32.11 -72.25,72.25 v 505.69 H 798.69 c -40.14,0 -72.25,32.11 -72.25,72.25 v 577.92 c 0,40.14 32.11,72.25 72.25,72.25 h 505.69 v 505.69 c 0,40.14 32.11,72.25 72.25,72.25 h 577.92 c 40.14,0 72.25,-32.11 72.25,-72.25 v -505.69 h 505.69 c 40.14,0 72.25,-32.11 72.25,-72.25 v -577.92 c -4.01,-40.14 -36.13,-72.25 -72.25,-72.25 z"
   id="path743"
   style="fill:#000000" />
  </g>
 </g>
</svg>
