<?xml version="1.0" encoding="UTF-8" standalone="no"?>
<svg
   xmlns:dc="http://purl.org/dc/elements/1.1/"
   xmlns:cc="http://creativecommons.org/ns#"
   xmlns:rdf="http://www.w3.org/1999/02/22-rdf-syntax-ns#"
   xmlns:svg="http://www.w3.org/2000/svg"
   xmlns="http://www.w3.org/2000/svg"
   xmlns:sodipodi="http://sodipodi.sourceforge.net/DTD/sodipodi-0.dtd"
   xmlns:inkscape="http://www.inkscape.org/namespaces/inkscape"
   xml:space="preserve"
   width="128"
   height="128"
   version="1.0"
   shape-rendering="geometricPrecision"
   text-rendering="geometricPrecision"
   image-rendering="optimizeQuality"
   fill-rule="evenodd"
   clip-rule="evenodd"
   viewBox="0 0 127.99999 128"
   id="svg771"
   sodipodi:docname="house.svg"
   inkscape:version="1.0.2-2 (e86c870879, 2021-01-15)"><metadata
   id="metadata777"><rdf:RDF><cc:Work
       rdf:about=""><dc:format>image/svg+xml</dc:format><dc:type
         rdf:resource="http://purl.org/dc/dcmitype/StillImage" /><dc:title></dc:title></cc:Work></rdf:RDF></metadata><defs
   id="defs775" /><sodipodi:namedview
   pagecolor="#ffffff"
   bordercolor="#666666"
   borderopacity="1"
   objecttolerance="10"
   gridtolerance="10"
   guidetolerance="10"
   inkscape:pageopacity="0"
   inkscape:pageshadow="2"
   inkscape:window-width="1920"
   inkscape:window-height="1027"
   id="namedview773"
   showgrid="false"
   units="px"
   inkscape:zoom="3.9281313"
   inkscape:cx="57.218513"
   inkscape:cy="46.684771"
   inkscape:window-x="-8"
   inkscape:window-y="22"
   inkscape:window-maximized="1"
   inkscape:current-layer="svg771" />
 <g
   id="Слой_x0020_1"
   style="fill:#000000"
   transform="matrix(0.00157567,0,0,0.00157567,11.864302,-7.56023e-5)">
  <metadata
   id="CorelCorpID_0Corel-Layer" />
  <path
   fill="#1F1B20"
   d="m 66175.9,2296.64 v 76642.1 c 0,1268.11 -1028.53,2296.64 -2296.64,2296.64 H 2296.65 C 1028.54,81235.38 0.01,80206.85 0.01,78938.74 V 2296.64 C 0.01,1028.53 1028.54,0 2296.65,0 h 61582.61 c 1268.11,0 2296.64,1028.53 2296.64,2296.64 z M 30791.31,76642.09 V 66444.83 h -3474.32 v 10197.26 z m 8067.61,0 V 66444.83 H 35384.6 v 10197.26 z m 22723.7,0 V 4593.28 H 4593.3 V 76642.09 H 22723.71 V 64148.18 c 0,-1268.11 1028.53,-2296.64 2296.64,-2296.64 h 16135.22 c 1268.11,0 2296.64,1028.53 2296.64,2296.64 V 76642.09 Z M 46466.81,58377.22 c -1268.11,0 -2296.64,-1028.53 -2296.64,-2296.64 v -8067.61 c 0,-1268.11 1028.53,-2296.64 2296.64,-2296.64 h 8067.61 c 1268.11,0 2296.64,1028.53 2296.64,2296.64 v 8067.61 c 0,1268.11 -1028.53,2296.64 -2296.64,2296.64 z m -17412.46,0 c -1268.11,0 -2296.64,-1028.53 -2296.64,-2296.64 v -8067.61 c 0,-1268.11 1028.53,-2296.64 2296.64,-2296.64 h 8067.61 c 1268.11,0 2296.25,1028.53 2296.25,2296.64 v 8067.61 c 0,1268.11 -1028.14,2296.64 -2296.25,2296.64 z m -17412.85,0 c -1268.11,0 -2296.64,-1028.53 -2296.64,-2296.64 v -8067.61 c 0,-1268.11 1028.53,-2296.64 2296.64,-2296.64 h 8067.61 c 1268.11,0 2296.64,1028.53 2296.64,2296.64 v 8067.61 c 0,1268.11 -1028.53,2296.64 -2296.64,2296.64 z M 46466.81,40964.76 c -1268.11,0 -2296.64,-1028.53 -2296.64,-2296.64 v -8067.61 c 0,-1268.11 1028.53,-2296.64 2296.64,-2296.64 h 8067.61 c 1268.11,0 2296.64,1028.93 2296.64,2296.64 v 8067.61 c 0,1267.72 -1028.93,2296.64 -2296.64,2296.64 z m -17412.46,0 c -1268.11,0 -2296.64,-1028.53 -2296.64,-2296.64 v -8067.61 c 0,-1268.11 1028.53,-2296.64 2296.64,-2296.64 h 8067.61 c 1268.11,0 2296.25,1028.93 2296.25,2296.64 v 8067.61 c 0,1267.72 -1028.53,2296.64 -2296.25,2296.64 z m -17412.85,0 c -1268.11,0 -2296.64,-1028.53 -2296.64,-2296.64 v -8067.61 c 0,-1268.11 1028.53,-2296.64 2296.64,-2296.64 h 8067.61 c 1268.11,0 2296.64,1028.93 2296.64,2296.64 v 8067.61 c 0,1267.72 -1028.93,2296.64 -2296.64,2296.64 z M 46466.81,23551.91 c -1268.11,0 -2296.64,-1028.53 -2296.64,-2296.64 v -8067.21 c 0,-1268.11 1028.53,-2296.64 2296.64,-2296.64 h 8067.61 c 1268.11,0 2296.64,1029.33 2296.64,2296.64 v 8067.21 c 0,1267.32 -1029.33,2296.64 -2296.64,2296.64 z m -17412.46,0 c -1268.11,0 -2296.64,-1028.53 -2296.64,-2296.64 v -8067.21 c 0,-1268.11 1028.53,-2296.64 2296.64,-2296.64 h 8067.61 c 1268.11,0 2296.25,1029.33 2296.25,2296.64 v 8067.21 c 0,1267.32 -1028.93,2296.64 -2296.25,2296.64 z m -17412.85,0 c -1268.11,0 -2296.64,-1028.53 -2296.64,-2296.64 v -8067.21 c 0,-1268.11 1028.53,-2296.64 2296.64,-2296.64 h 8067.61 c 1268.11,0 2296.64,1029.33 2296.64,2296.64 v 8067.21 c 0,1267.32 -1029.33,2296.64 -2296.64,2296.64 z m 37121.95,26757.7 v 3474.32 h 3474.32 v -3474.32 z m -17412.85,0 v 3474.32 h 3474.72 v -3474.32 z m -17412.46,0 v 3474.32 h 3474.32 V 50309.61 Z M 48763.45,32897.15 v 3474.32 h 3474.32 v -3474.32 z m -17412.85,0 v 3474.32 h 3474.72 v -3474.32 z m -17412.46,0 v 3474.32 h 3474.32 V 32897.15 Z M 48763.45,15484.3 v 3474.72 h 3474.32 V 15484.3 Z m -17412.85,0 v 3474.72 h 3474.72 V 15484.3 Z m -17412.46,0 v 3474.72 h 3474.32 V 15484.3 Z"
   id="path768"
   style="fill:#000000" />
 </g>
</svg>
