<?xml version="1.0" encoding="UTF-8" standalone="no"?>
<svg
   xmlns:dc="http://purl.org/dc/elements/1.1/"
   xmlns:cc="http://creativecommons.org/ns#"
   xmlns:rdf="http://www.w3.org/1999/02/22-rdf-syntax-ns#"
   xmlns:svg="http://www.w3.org/2000/svg"
   xmlns="http://www.w3.org/2000/svg"
   xmlns:sodipodi="http://sodipodi.sourceforge.net/DTD/sodipodi-0.dtd"
   xmlns:inkscape="http://www.inkscape.org/namespaces/inkscape"
   xml:space="preserve"
   width="128"
   height="128"
   version="1.0"
   shape-rendering="geometricPrecision"
   text-rendering="geometricPrecision"
   image-rendering="optimizeQuality"
   fill-rule="evenodd"
   clip-rule="evenodd"
   viewBox="0 0 128 128"
   id="svg860"
   sodipodi:docname="image.svg"
   inkscape:version="1.0.2-2 (e86c870879, 2021-01-15)"><metadata
   id="metadata866"><rdf:RDF><cc:Work
       rdf:about=""><dc:format>image/svg+xml</dc:format><dc:type
         rdf:resource="http://purl.org/dc/dcmitype/StillImage" /><dc:title></dc:title></cc:Work></rdf:RDF></metadata><defs
   id="defs864" /><sodipodi:namedview
   pagecolor="#ffffff"
   bordercolor="#666666"
   borderopacity="1"
   objecttolerance="10"
   gridtolerance="10"
   guidetolerance="10"
   inkscape:pageopacity="0"
   inkscape:pageshadow="2"
   inkscape:window-width="1920"
   inkscape:window-height="1027"
   id="namedview862"
   showgrid="false"
   units="px"
   inkscape:zoom="1.4221354"
   inkscape:cx="-95.127307"
   inkscape:cy="176.7308"
   inkscape:window-x="-8"
   inkscape:window-y="22"
   inkscape:window-maximized="1"
   inkscape:current-layer="svg860" />
 <g
   id="Слой_x0020_1"
   style="fill:#000000"
   transform="scale(0.32103534)">
  <metadata
   id="CorelCorpID_0Corel-Layer" />
  <path
   fill="#1F1B20"
   d="M 355.1,0 H 43.61 C 19.57,0 0,19.57 0,43.61 V 355.1 c 0,24.04 19.57,43.61 43.61,43.61 H 355.1 c 24.04,0 43.61,-19.57 43.61,-43.61 V 43.61 C 398.71,19.57 379.14,0 355.1,0 Z M 43.61,23.65 H 355.1 c 11.01,0 19.96,8.95 19.96,19.96 v 243.21 l -61.04,-61.04 c -17,-17 -44.67,-17 -61.67,0 L 231.93,246.2 179.73,194 c -17,-17 -44.67,-17 -61.67,0 L 23.65,288.41 V 43.61 c 0,-11.01 8.95,-19.96 19.96,-19.96 z m 188.33,256 37.14,-37.14 c 7.78,-7.78 20.44,-7.78 28.22,0 l 77.76,77.76 v 34.83 c 0,11.01 -8.95,19.96 -19.96,19.96 H 43.61 c -11.01,0 -19.96,-8.95 -19.96,-19.96 V 321.86 L 134.79,210.73 c 7.78,-7.78 20.44,-7.78 28.22,0 z m 21.45,-128.86 c 24.04,0 43.61,-19.57 43.61,-43.61 0,-24.04 -19.57,-43.61 -43.61,-43.61 -24.04,0 -43.61,19.56 -43.61,43.61 0,24.04 19.57,43.61 43.61,43.61 z m 0,-63.57 c 11.01,0 19.96,8.95 19.96,19.96 0,11.01 -8.95,19.96 -19.96,19.96 -11.01,0 -19.96,-8.95 -19.96,-19.96 0,-11.01 8.95,-19.96 19.96,-19.96 z"
   id="path857"
   style="fill:#000000" />
 </g>
</svg>
