<?xml version="1.0" encoding="UTF-8" standalone="no"?>
<svg
   xmlns:dc="http://purl.org/dc/elements/1.1/"
   xmlns:cc="http://creativecommons.org/ns#"
   xmlns:rdf="http://www.w3.org/1999/02/22-rdf-syntax-ns#"
   xmlns:svg="http://www.w3.org/2000/svg"
   xmlns="http://www.w3.org/2000/svg"
   xmlns:sodipodi="http://sodipodi.sourceforge.net/DTD/sodipodi-0.dtd"
   xmlns:inkscape="http://www.inkscape.org/namespaces/inkscape"
   xml:space="preserve"
   width="128"
   height="128"
   version="1.1"
   shape-rendering="geometricPrecision"
   text-rendering="geometricPrecision"
   image-rendering="optimizeQuality"
   fill-rule="evenodd"
   clip-rule="evenodd"
   viewBox="0 0 128 128"
   id="svg894"
   sodipodi:docname="instagram.svg"
   inkscape:version="1.0.2-2 (e86c870879, 2021-01-15)"><metadata
   id="metadata900"><rdf:RDF><cc:Work
       rdf:about=""><dc:format>image/svg+xml</dc:format><dc:type
         rdf:resource="http://purl.org/dc/dcmitype/StillImage" /><dc:title></dc:title></cc:Work></rdf:RDF></metadata><defs
   id="defs898" /><sodipodi:namedview
   pagecolor="#ffffff"
   bordercolor="#666666"
   borderopacity="1"
   objecttolerance="10"
   gridtolerance="10"
   guidetolerance="10"
   inkscape:pageopacity="0"
   inkscape:pageshadow="2"
   inkscape:window-width="1920"
   inkscape:window-height="1027"
   id="namedview896"
   showgrid="false"
   inkscape:zoom="34.4"
   inkscape:cx="12.5"
   inkscape:cy="12.5"
   inkscape:window-x="-8"
   inkscape:window-y="22"
   inkscape:window-maximized="1"
   inkscape:current-layer="svg894" />
 <g
   id="Слой_x0020_1"
   style="fill:#000000"
   transform="scale(31.411043)">
  <metadata
   id="CorelCorpID_0Corel-Layer" />
  <g
   id="_2857551388304"
   style="fill:#000000">
   <path
   fill="white"
   fill-rule="nonzero"
   d="m 2.428,2.038 c 0,0.215 -0.175,0.39 -0.39,0.39 -0.216,0 -0.39,-0.175 -0.39,-0.39 0,-0.216 0.174,-0.39 0.39,-0.39 0.215,0 0.39,0.174 0.39,0.39 z"
   id="path886"
   style="fill:#000000" />
   <path
   fill="white"
   fill-rule="nonzero"
   d="M 2.95,1.348 C 2.931,1.297 2.901,1.251 2.862,1.213 2.824,1.174 2.778,1.144 2.728,1.125 2.686,1.109 2.624,1.09 2.51,1.085 2.387,1.08 2.35,1.078 2.038,1.078 1.725,1.078 1.688,1.08 1.565,1.085 1.451,1.09 1.389,1.109 1.348,1.125 1.297,1.144 1.251,1.174 1.213,1.213 1.174,1.251 1.144,1.297 1.125,1.348 1.109,1.389 1.09,1.451 1.085,1.565 1.08,1.688 1.078,1.725 1.078,2.038 1.078,2.35 1.08,2.387 1.085,2.51 1.09,2.624 1.109,2.686 1.125,2.728 1.144,2.778 1.174,2.824 1.213,2.862 1.251,2.901 1.297,2.931 1.348,2.95 1.389,2.966 1.451,2.985 1.565,2.99 1.688,2.996 1.725,2.997 2.038,2.997 2.35,2.997 2.387,2.996 2.51,2.99 2.624,2.985 2.686,2.966 2.728,2.95 2.83,2.91 2.91,2.83 2.95,2.728 2.966,2.686 2.985,2.624 2.99,2.51 2.996,2.387 2.997,2.35 2.997,2.038 2.997,1.725 2.996,1.688 2.99,1.565 2.985,1.451 2.966,1.389 2.95,1.348 Z m -0.912,1.29 c -0.332,0 -0.601,-0.269 -0.601,-0.6 0,-0.332 0.269,-0.601 0.601,-0.601 0.331,0 0.6,0.269 0.6,0.601 0,0.331 -0.269,0.6 -0.6,0.6 z M 2.662,1.553 c -0.077,0 -0.14,-0.062 -0.14,-0.14 0,-0.078 0.063,-0.14 0.14,-0.14 0.078,0 0.141,0.062 0.141,0.14 -10e-4,0.078 -0.063,0.14 -0.141,0.14 z"
   id="path888"
   style="fill:#000000" />
   <path
   fill="white"
   fill-rule="nonzero"
   d="M 2.038,0 C 0.912,0 0,0.912 0,2.038 0,3.163 0.912,4.075 2.038,4.075 3.163,4.075 4.075,3.163 4.075,2.038 4.075,0.912 3.163,0 2.038,0 Z M 3.201,2.52 C 3.195,2.644 3.175,2.73 3.146,2.804 3.085,2.961 2.961,3.085 2.804,3.146 2.73,3.175 2.644,3.195 2.52,3.201 2.395,3.206 2.355,3.208 2.038,3.208 1.72,3.208 1.68,3.206 1.555,3.201 1.431,3.195 1.346,3.175 1.271,3.146 1.193,3.117 1.122,3.071 1.064,3.011 1.004,2.953 0.958,2.882 0.929,2.804 0.9,2.73 0.88,2.644 0.875,2.52 0.869,2.395 0.868,2.355 0.868,2.038 0.868,1.72 0.869,1.68 0.875,1.555 0.88,1.431 0.9,1.346 0.929,1.271 0.958,1.193 1.004,1.122 1.064,1.064 1.122,1.004 1.193,0.958 1.271,0.929 1.346,0.9 1.431,0.88 1.555,0.875 1.68,0.869 1.72,0.868 2.038,0.868 2.355,0.868 2.395,0.869 2.52,0.875 2.644,0.88 2.73,0.9 2.804,0.929 2.882,0.958 2.953,1.004 3.011,1.064 3.071,1.122 3.117,1.193 3.146,1.271 3.175,1.346 3.195,1.431 3.201,1.555 3.206,1.68 3.208,1.72 3.208,2.038 3.208,2.355 3.206,2.395 3.201,2.52 Z"
   id="path890"
   style="fill:#000000" />
  </g>
 </g>
</svg>
