<?xml version="1.0" encoding="UTF-8" standalone="no"?>
<svg
   xmlns:dc="http://purl.org/dc/elements/1.1/"
   xmlns:cc="http://creativecommons.org/ns#"
   xmlns:rdf="http://www.w3.org/1999/02/22-rdf-syntax-ns#"
   xmlns:svg="http://www.w3.org/2000/svg"
   xmlns="http://www.w3.org/2000/svg"
   xmlns:sodipodi="http://sodipodi.sourceforge.net/DTD/sodipodi-0.dtd"
   xmlns:inkscape="http://www.inkscape.org/namespaces/inkscape"
   xml:space="preserve"
   width="128"
   height="128"
   version="1.0"
   shape-rendering="geometricPrecision"
   text-rendering="geometricPrecision"
   image-rendering="optimizeQuality"
   fill-rule="evenodd"
   clip-rule="evenodd"
   viewBox="0 0 128 128"
   id="svg918"
   sodipodi:docname="key.svg"
   inkscape:version="1.0.2-2 (e86c870879, 2021-01-15)"><metadata
   id="metadata924"><rdf:RDF><cc:Work
       rdf:about=""><dc:format>image/svg+xml</dc:format><dc:type
         rdf:resource="http://purl.org/dc/dcmitype/StillImage" /><dc:title></dc:title></cc:Work></rdf:RDF></metadata><defs
   id="defs922" /><sodipodi:namedview
   pagecolor="#ffffff"
   bordercolor="#666666"
   borderopacity="1"
   objecttolerance="10"
   gridtolerance="10"
   guidetolerance="10"
   inkscape:pageopacity="0"
   inkscape:pageshadow="2"
   inkscape:window-width="1920"
   inkscape:window-height="1027"
   id="namedview920"
   showgrid="false"
   units="px"
   inkscape:zoom="0.25139915"
   inkscape:cx="-1356.1791"
   inkscape:cy="699.64094"
   inkscape:window-x="-8"
   inkscape:window-y="22"
   inkscape:window-maximized="1"
   inkscape:current-layer="svg918" />
 <g
   id="Слой_x0020_1"
   style="fill:#000000"
   transform="matrix(0.17405257,0,0,0.17405257,0.02436711,-2.5185001e-7)">
  <metadata
   id="CorelCorpID_0Corel-Layer" />
  <path
   fill="#1F1B20"
   d="m 427.69,427.23 -41.22,41.22 v 76.1 c 0,11.67 -9.47,21.14 -21.14,21.14 h -63.72 v 63.71 c 0,11.67 -9.47,21.15 -21.14,21.15 h -63.72 v 63.71 c 0,5.61 -2.23,10.99 -6.2,14.96 -3.97,3.97 -9.34,6.19 -14.96,6.19 L 21.52,735.2 21.48,735.21 20.77,735.2 C 15.28,735.1 10.08,732.9 6.2,729.02 2.36,725.18 0.17,720.11 0.03,714.79 0.01,714.56 0.01,714.39 0.01,714.16 l 0.18,-90.1 c 0.01,-5.59 2.24,-10.95 6.2,-14.91 L 308,307.52 C 273.48,224.74 292.48,128.62 356.04,65.06 397.98,23.12 453.78,0 513.1,0 c 59.32,0 115.13,23.12 157.07,65.06 86.6,86.6 86.6,227.52 0,314.12 -41.72,41.72 -98.07,65.17 -157.08,65.17 -29.34,0 -58.34,-5.83 -85.39,-17.12 z m 75.17,-304.05 v 0 c -30.09,30.1 -30.09,79.08 0,109.18 15.05,15.05 34.83,22.57 54.59,22.57 19.76,0 39.53,-7.53 54.58,-22.57 30.1,-30.1 30.1,-79.08 0,-109.18 -30.1,-30.1 -79.08,-30.1 -109.18,0 z m 85.95,85.95 c -17.29,17.28 -45.42,17.28 -62.72,0 -17.29,-17.29 -17.29,-45.42 0,-62.72 17.29,-17.28 45.43,-17.28 62.72,0 17.29,17.3 17.29,45.43 0,62.72 z M 359.36,352.62 162.32,549.66 c -6.42,6.41 -6.42,16.81 0,23.22 3.21,3.21 7.41,4.81 11.61,4.81 4.2,0 8.4,-1.6 11.61,-4.81 L 382.58,375.84 c 6.41,-6.42 6.41,-16.82 0,-23.23 -6.41,-6.42 -16.81,-6.42 -23.23,0 z m -316.91,280.25 -0.06,30.05 70.14,-70.14 c 8.26,-8.26 21.64,-8.26 29.89,0 8.26,8.26 8.26,21.64 0,29.89 l -70.29,70.31 102.34,0.11 V 629.4 c 0,-11.67 9.46,-21.14 21.14,-21.14 h 63.72 v -63.72 c 0,-11.67 9.47,-21.15 21.14,-21.15 h 63.72 v -63.71 c 0,-5.61 2.22,-10.99 6.19,-14.96 l 57.8,-57.8 c 6.43,-6.43 16.29,-8.03 24.42,-3.95 69.24,34.66 152.91,21.05 207.66,-33.7 33.97,-33.97 52.67,-79.12 52.67,-127.16 0,-48.05 -18.7,-93.19 -52.67,-127.16 -33.97,-33.97 -79.13,-52.67 -127.17,-52.67 -48.04,0 -93.19,18.7 -127.16,52.67 -54.74,54.74 -68.36,138.42 -33.7,207.66 4.07,8.13 2.47,17.99 -3.95,24.42 L 42.45,632.86 Z"
   id="path915"
   style="fill:#000000" />
 </g>
</svg>
