<?xml version="1.0" encoding="UTF-8" standalone="no"?>
<svg
   xmlns:dc="http://purl.org/dc/elements/1.1/"
   xmlns:cc="http://creativecommons.org/ns#"
   xmlns:rdf="http://www.w3.org/1999/02/22-rdf-syntax-ns#"
   xmlns:svg="http://www.w3.org/2000/svg"
   xmlns="http://www.w3.org/2000/svg"
   xmlns:sodipodi="http://sodipodi.sourceforge.net/DTD/sodipodi-0.dtd"
   xmlns:inkscape="http://www.inkscape.org/namespaces/inkscape"
   xml:space="preserve"
   width="128"
   height="128"
   version="1.0"
   shape-rendering="geometricPrecision"
   text-rendering="geometricPrecision"
   image-rendering="optimizeQuality"
   fill-rule="evenodd"
   clip-rule="evenodd"
   viewBox="0 0 128 128"
   id="svg964"
   sodipodi:docname="kids.svg"
   inkscape:version="1.0.2-2 (e86c870879, 2021-01-15)"><metadata
   id="metadata970"><rdf:RDF><cc:Work
       rdf:about=""><dc:format>image/svg+xml</dc:format><dc:type
         rdf:resource="http://purl.org/dc/dcmitype/StillImage" /><dc:title></dc:title></cc:Work></rdf:RDF></metadata><defs
   id="defs968" /><sodipodi:namedview
   pagecolor="#ffffff"
   bordercolor="#666666"
   borderopacity="1"
   objecttolerance="10"
   gridtolerance="10"
   guidetolerance="10"
   inkscape:pageopacity="0"
   inkscape:pageshadow="2"
   inkscape:window-width="1920"
   inkscape:window-height="1027"
   id="namedview966"
   showgrid="false"
   units="px"
   inkscape:zoom="4.0224064"
   inkscape:cx="61.337286"
   inkscape:cy="81.669136"
   inkscape:window-x="-8"
   inkscape:window-y="22"
   inkscape:window-maximized="1"
   inkscape:current-layer="svg964" />
 <g
   id="Слой_x0020_1"
   style="fill:#000000"
   transform="matrix(0.33443505,0,0,0.33443505,-0.00501596,2.0627539)">
  <metadata
   id="CorelCorpID_0Corel-Layer" />
  <g
   id="_2828880624624"
   style="fill:#000000">
   <path
   fill="black"
   fill-rule="nonzero"
   d="m 129.57,172.84 c 27.23,0 49.39,-18 49.39,-40.13 0,-3.41 -2.76,-6.17 -6.17,-6.17 -3.41,0 -6.17,2.76 -6.17,6.17 0,13.74 -13.37,25.18 -30.87,27.38 V 140.5 c 0.65,-0.33 1.28,-0.7 1.87,-1.13 l 10.48,-7.47 c 3.9,-2.83 6.2,-7.37 6.17,-12.19 0,-8.15 -6.38,-14.78 -14.22,-14.78 h -20.96 c -7.84,0 -14.21,6.63 -14.21,14.78 -0.03,4.82 2.27,9.36 6.17,12.19 l 10.47,7.47 c 0.6,0.43 1.22,0.8 1.88,1.13 v 19.59 c -17.5,-2.21 -30.87,-13.64 -30.87,-27.38 0,-3.41 -2.76,-6.17 -6.17,-6.17 -3.41,0 -6.17,2.76 -6.17,6.17 0,22.13 22.15,40.13 49.39,40.13 z m -11.35,-50.99 c -0.65,-0.52 -1.02,-1.31 -0.99,-2.14 0,-1.32 0.86,-2.44 1.87,-2.44 h 20.96 c 1.01,0 1.87,1.11 1.87,2.44 0.02,0.83 -0.35,1.62 -0.99,2.14 l -10.48,7.48 c -0.52,0.4 -1.23,0.4 -1.75,0 l -10.48,-7.48 z"
   id="path950"
   style="fill:#000000" />
   <path
   fill="black"
   fill-rule="nonzero"
   d="m 172.78,98.77 c 0,3.41 -2.76,6.17 -6.17,6.17 -3.41,0 -6.17,-2.76 -6.17,-6.17 0,-3.41 2.76,-6.17 6.17,-6.17 3.41,0 6.17,2.77 6.17,6.17 z"
   id="path952"
   style="fill:#000000" />
   <path
   fill="black"
   fill-rule="nonzero"
   d="m 98.7,98.77 c 0,3.41 -2.76,6.17 -6.17,6.17 -3.41,0 -6.17,-2.76 -6.17,-6.17 0,-3.41 2.76,-6.17 6.17,-6.17 3.41,0 6.17,2.77 6.17,6.17 z"
   id="path954"
   style="fill:#000000" />
   <path
   fill="black"
   fill-rule="nonzero"
   d="m 290.14,228.4 c 9.99,0 18.99,-6.02 22.81,-15.24 3.82,-9.23 1.71,-19.85 -5.35,-26.91 -7.06,-7.07 -17.68,-9.18 -26.91,-5.35 -9.23,3.82 -15.25,12.82 -15.25,22.81 0.02,13.63 11.06,24.68 24.69,24.69 z m 0,-37.04 c 4.99,0 9.5,3.01 11.41,7.62 1.91,4.61 0.86,9.93 -2.68,13.45 -3.53,3.53 -8.84,4.59 -13.46,2.68 -4.61,-1.91 -7.62,-6.41 -7.62,-11.41 0.01,-6.82 5.53,-12.34 12.35,-12.35 z"
   id="path956"
   style="fill:#000000" />
   <path
   fill="black"
   fill-rule="nonzero"
   d="M 376.56,240.75 H 339.52 V 160.5 c 0,-1.26 -0.39,-2.5 -1.12,-3.54 L 295.19,95.23 c -1.16,-1.65 -3.05,-2.64 -5.06,-2.64 -2.01,0 -3.9,0.99 -5.06,2.64 l -43.21,61.73 c -0.73,1.04 -1.12,2.27 -1.11,3.54 v 38.63 c -8.45,-11.37 -19.73,-20.8 -33.66,-28.07 13.75,-16.16 21.25,-37.16 21.25,-59.95 0.03,-10.07 -1.49,-20.08 -4.53,-29.68 12.2,-6.44 20.59,-18.31 22.59,-31.95 2,-13.65 -2.64,-27.43 -12.47,-37.09 -9.83,-9.67 -23.69,-14.05 -37.3,-11.82 -13.61,2.24 -25.33,10.84 -31.55,23.15 -11.5,-3.54 -23.47,-5.3 -35.5,-5.2 -12.03,-0.09 -24,1.66 -35.5,5.21 C 87.86,11.42 76.14,2.82 62.53,0.58 48.93,-1.66 35.06,2.73 25.23,12.4 15.39,22.06 10.76,35.84 12.75,49.49 c 2,13.64 10.39,25.51 22.59,31.95 -3.04,9.6 -4.56,19.62 -4.53,29.68 0,22.79 7.49,43.79 21.24,59.95 -30.05,15.7 -47.77,41.44 -51.41,74.96 -0.01,0.08 -0.02,0.15 -0.02,0.23 l -0.59,8.47 c -0.02,0.28 -0.02,0.56 0,0.84 1.01,14.77 10.69,27.53 24.65,32.46 -4.07,8.35 -6.17,17.52 -6.14,26.81 0,30.63 22.15,55.56 49.39,55.56 14.66,0 27.84,-7.23 36.89,-18.68 15.48,8.45 34.19,8.45 49.68,0 9.05,11.45 22.23,18.68 36.89,18.68 19.35,0 36.13,-12.59 44.22,-30.87 h 140.97 c 3.41,0 6.17,-2.76 6.17,-6.17 v -86.42 c 0,-3.41 -2.76,-6.17 -6.17,-6.17 z m -86.42,-131.22 31.36,44.8 h -62.71 l 31.36,-44.8 z m -37.04,57.14 h 74.08 v 74.08 H 257.8 c -0.97,-6.31 -2.54,-12.51 -4.69,-18.52 v -55.56 z m -18.52,121.31 c 5.82,-2.09 11.02,-5.59 15.15,-10.19 h 9.54 v 24.69 H 239.5 c -1.01,-5.03 -2.66,-9.9 -4.92,-14.5 z m 11.63,-40.74 0.56,7.91 c -0.91,10.72 -8.65,19.62 -19.14,22.02 -7.74,-9.42 -18.33,-15.83 -30.22,-17.47 -1.13,-25.11 -9.59,-48.28 -23.42,-64.5 8.72,-3.69 16.8,-8.72 23.96,-14.91 28.28,13.55 44.94,36.61 48.27,66.94 v 0 z M 203.64,12.34 c 13.94,0 26.16,9.34 29.8,22.8 3.64,13.46 -2.19,27.69 -14.23,34.72 -4.31,-9.02 -10.16,-17.24 -17.29,-24.26 -7.35,-7.21 -15.9,-13.1 -25.26,-17.4 5.46,-9.78 15.77,-15.85 26.98,-15.86 z M 24.62,43.21 c 0,-14.07 9.5,-26.35 23.11,-29.88 C 61.35,9.8 75.63,15.92 82.46,28.21 73.1,32.51 64.55,38.39 57.2,45.61 50.07,52.64 44.22,60.84 39.92,69.87 30.45,64.33 24.63,54.18 24.62,43.22 Z m 41.24,11.2 c 15.66,-15.4 37.69,-23.54 63.7,-23.54 26.01,0 48.04,8.14 63.71,23.54 14.65,14.4 22.72,34.54 22.72,56.71 0,22.17 -8.07,42.3 -22.72,56.71 -15.66,15.4 -37.69,23.54 -63.71,23.54 -26.02,0 -48.04,-8.14 -63.7,-23.54 -14.65,-14.4 -22.72,-34.54 -22.72,-56.71 0,-22.16 8.07,-42.3 22.72,-56.71 z m -53.5,200.74 0.55,-7.91 c 3.33,-30.34 19.99,-53.39 48.26,-66.94 7.19,6.23 15.31,11.27 24.07,14.96 -13.78,16.23 -22.26,39.46 -23.39,64.45 -11.9,1.64 -22.51,8.06 -30.25,17.49 C 21.06,274.84 13.26,265.92 12.35,255.15 Z M 67.9,358.04 c -20.43,0 -37.04,-19.38 -37.04,-43.21 0,-23.83 16.61,-43.21 37.04,-43.21 20.43,0 37.04,19.38 37.04,43.21 0,23.83 -16.61,43.21 -37.04,43.21 z m 61.73,-12.35 c -6.36,-0.02 -12.63,-1.56 -18.27,-4.5 3.93,-8.24 5.96,-17.25 5.93,-26.37 0,-28.23 -18.81,-51.59 -43.07,-55.09 1.19,-24.07 9.84,-46.08 23.72,-60.09 10.31,2.76 20.95,4.13 31.62,4.06 10.71,0.06 21.38,-1.31 31.72,-4.09 13.93,14.01 22.58,35.93 23.76,60.12 -24.25,3.5 -43.07,26.86 -43.07,55.09 -0.03,9.12 2,18.13 5.93,26.37 -5.65,2.93 -11.91,4.48 -18.27,4.5 z m 61.73,12.35 c -20.43,0 -37.04,-19.38 -37.04,-43.21 0,-23.83 16.62,-43.21 37.04,-43.21 20.43,0 37.04,19.38 37.04,43.21 0,23.83 -16.61,43.21 -37.04,43.21 z m 49.39,-43.21 h 24.69 c 3.41,0 6.17,-2.77 6.17,-6.17 v -37.04 c 0,-3.41 -2.77,-6.17 -6.17,-6.17 h -8.37 c 1.13,-3.18 1.82,-6.51 2.04,-9.88 0.02,-0.28 0.02,-0.56 0,-0.84 L 259,253.1 h 24.96 v 74.08 H 239.5 c 0.83,-4.06 1.25,-8.2 1.25,-12.35 z m 129.64,12.35 H 296.31 V 253.1 h 74.08 z"
   id="path958"
   style="fill:#000000" />
   <path
   fill="black"
   fill-rule="nonzero"
   d="m 314.83,314.83 h 37.04 c 2.14,0 4.13,-1.11 5.25,-2.93 1.12,-1.81 1.23,-4.09 0.27,-6 l -18.52,-37.04 c -1.04,-2.09 -3.18,-3.41 -5.52,-3.41 -2.34,0 -4.48,1.32 -5.52,3.41 l -18.52,37.04 c -0.96,1.91 -0.85,4.19 0.27,6 1.12,1.82 3.11,2.93 5.25,2.93 z m 18.52,-29.41 8.53,17.06 h -17.07 l 8.53,-17.06 z"
   id="path960"
   style="fill:#000000" />
  </g>
 </g>
</svg>
