<?xml version="1.0" encoding="UTF-8" standalone="no"?>
<svg
   xmlns:dc="http://purl.org/dc/elements/1.1/"
   xmlns:cc="http://creativecommons.org/ns#"
   xmlns:rdf="http://www.w3.org/1999/02/22-rdf-syntax-ns#"
   xmlns:svg="http://www.w3.org/2000/svg"
   xmlns="http://www.w3.org/2000/svg"
   xmlns:sodipodi="http://sodipodi.sourceforge.net/DTD/sodipodi-0.dtd"
   xmlns:inkscape="http://www.inkscape.org/namespaces/inkscape"
   xml:space="preserve"
   version="1.0"
   style="clip-rule:evenodd;fill-rule:evenodd;image-rendering:optimizeQuality;shape-rendering:geometricPrecision;text-rendering:geometricPrecision"
   height="128"
   width="128"
   viewBox="0 0 128 128"
   id="svg104"
   sodipodi:docname="location.svg"
   inkscape:version="1.0.2-2 (e86c870879, 2021-01-15)"><metadata
   id="metadata110"><rdf:RDF><cc:Work
       rdf:about=""><dc:format>image/svg+xml</dc:format><dc:type
         rdf:resource="http://purl.org/dc/dcmitype/StillImage" /><dc:title></dc:title></cc:Work></rdf:RDF></metadata><defs
   id="defs108" /><sodipodi:namedview
   pagecolor="#ffffff"
   bordercolor="#666666"
   borderopacity="1"
   objecttolerance="10"
   gridtolerance="10"
   guidetolerance="10"
   inkscape:pageopacity="0"
   inkscape:pageshadow="2"
   inkscape:window-width="1920"
   inkscape:window-height="1027"
   id="namedview106"
   showgrid="false"
   inkscape:zoom="0.29692961"
   inkscape:cx="-1029.0812"
   inkscape:cy="-16.9158"
   inkscape:window-x="-8"
   inkscape:window-y="22"
   inkscape:window-maximized="1"
   inkscape:current-layer="svg104" />
    <path
   d="M 101.88434,21.925654 C 94.115517,8.5158278 80.316344,0.33049198 64.977894,0.01358186 c -0.65193,-0.01810915 -1.312913,-0.01810915 -1.964842,0 C 47.674601,0.32143742 33.875429,8.5158278 26.106604,21.925654 18.165742,35.625226 17.948432,52.086443 25.527111,65.958052 L 57.263396,124.0522 c 0.01811,0.0272 0.02716,0.0543 0.04527,0.0724 1.394404,2.42663 3.893467,3.87536 6.691331,3.87536 2.797863,0 5.296926,-1.44873 6.691331,-3.87536 0.01811,-0.0272 0.02716,-0.0543 0.04527,-0.0724 L 102.47289,65.958052 C 110.05157,52.086443 109.83426,35.63428 101.8934,21.925654 Z M 63.990945,58.008135 c -9.923814,0 -18.000495,-8.076681 -18.000495,-18.000495 0,-9.923814 8.076681,-18.000496 18.000495,-18.000496 9.923815,0 18.000495,8.076682 18.000495,18.000496 0,9.923814 -8.07668,18.000495 -18.000495,18.000495 z"
   id="path102"
   style="stroke-width:0.905458"
   inkscape:label="path1" />
</svg>
