<?xml version="1.0" encoding="UTF-8" standalone="no"?>
<svg
   xmlns:dc="http://purl.org/dc/elements/1.1/"
   xmlns:cc="http://creativecommons.org/ns#"
   xmlns:rdf="http://www.w3.org/1999/02/22-rdf-syntax-ns#"
   xmlns:svg="http://www.w3.org/2000/svg"
   xmlns="http://www.w3.org/2000/svg"
   xmlns:sodipodi="http://sodipodi.sourceforge.net/DTD/sodipodi-0.dtd"
   xmlns:inkscape="http://www.inkscape.org/namespaces/inkscape"
   xml:space="preserve"
   width="128"
   height="128"
   version="1.0"
   shape-rendering="geometricPrecision"
   text-rendering="geometricPrecision"
   image-rendering="optimizeQuality"
   fill-rule="evenodd"
   clip-rule="evenodd"
   viewBox="0 0 128 128"
   id="svg190"
   sodipodi:docname="map-marker.svg"
   inkscape:version="1.0.2-2 (e86c870879, 2021-01-15)"><metadata
   id="metadata196"><rdf:RDF><cc:Work
       rdf:about=""><dc:format>image/svg+xml</dc:format><dc:type
         rdf:resource="http://purl.org/dc/dcmitype/StillImage" /><dc:title></dc:title></cc:Work></rdf:RDF></metadata><defs
   id="defs194" /><sodipodi:namedview
   pagecolor="#ffffff"
   bordercolor="#666666"
   borderopacity="1"
   objecttolerance="10"
   gridtolerance="10"
   guidetolerance="10"
   inkscape:pageopacity="0"
   inkscape:pageshadow="2"
   inkscape:window-width="1920"
   inkscape:window-height="1027"
   id="namedview192"
   showgrid="false"
   units="px"
   inkscape:zoom="1.8961806"
   inkscape:cx="-166.67478"
   inkscape:cy="130.69453"
   inkscape:window-x="-8"
   inkscape:window-y="22"
   inkscape:window-maximized="1"
   inkscape:current-layer="svg190" />
 <g
   id="Слой_x0020_1"
   transform="matrix(0.49060943,0,0,0.49060943,11.316138,0.00490595)">
  <metadata
   id="CorelCorpID_0Corel-Layer" />
  <path
   fill="#000000"
   fill-rule="nonzero"
   d="m 117.27,246.59 13.53,-28.98 c 1.73,-3.7 4.91,-6.55 8.81,-7.77 43.56,-13.69 75.16,-54.38 75.16,-102.46 C 214.77,51.4 171.93,5.43 117.25,0.45 114,0.15 110.71,-0.01 107.38,-0.01 48.08,-0.01 0.24,47.62 0,106.92 c -0.2,48.26 31.44,89.16 75.12,102.9 3.91,1.23 7.11,4.07 8.84,7.78 l 18.85,40.38 c 1.81,3.88 7.33,3.88 9.14,0 z"
   id="path187" />
 </g>
</svg>
