<?xml version="1.0" encoding="UTF-8" standalone="no"?>
<svg
   xmlns:dc="http://purl.org/dc/elements/1.1/"
   xmlns:cc="http://creativecommons.org/ns#"
   xmlns:rdf="http://www.w3.org/1999/02/22-rdf-syntax-ns#"
   xmlns:svg="http://www.w3.org/2000/svg"
   xmlns="http://www.w3.org/2000/svg"
   xmlns:sodipodi="http://sodipodi.sourceforge.net/DTD/sodipodi-0.dtd"
   xmlns:inkscape="http://www.inkscape.org/namespaces/inkscape"
   xml:space="preserve"
   width="128"
   height="128"
   version="1.0"
   shape-rendering="geometricPrecision"
   text-rendering="geometricPrecision"
   image-rendering="optimizeQuality"
   fill-rule="evenodd"
   clip-rule="evenodd"
   viewBox="0 0 128 128"
   id="svg337"
   sodipodi:docname="oil.svg"
   inkscape:version="1.0.2-2 (e86c870879, 2021-01-15)"><metadata
   id="metadata343"><rdf:RDF><cc:Work
       rdf:about=""><dc:format>image/svg+xml</dc:format><dc:type
         rdf:resource="http://purl.org/dc/dcmitype/StillImage" /><dc:title></dc:title></cc:Work></rdf:RDF></metadata><defs
   id="defs341" /><sodipodi:namedview
   pagecolor="#ffffff"
   bordercolor="#666666"
   borderopacity="1"
   objecttolerance="10"
   gridtolerance="10"
   guidetolerance="10"
   inkscape:pageopacity="0"
   inkscape:pageshadow="2"
   inkscape:window-width="1920"
   inkscape:window-height="1027"
   id="namedview339"
   showgrid="false"
   units="px"
   inkscape:zoom="1.978557"
   inkscape:cx="32.637663"
   inkscape:cy="160.63318"
   inkscape:window-x="-8"
   inkscape:window-y="22"
   inkscape:window-maximized="1"
   inkscape:current-layer="svg337" />
 <g
   id="Слой_x0020_1"
   transform="matrix(0.55805031,0,0,0.55805031,15.728648,-0.01674131)">
  <metadata
   id="CorelCorpID_0Corel-Layer" />
  <path
   fill="#000000"
   d="m 163.59,169.27 h 2.84 c 3.62,0 6.56,2.94 6.56,6.56 0,3.62 -2.94,6.56 -6.56,6.56 h -2.84 v 33.89 h 2.84 c 3.62,0 6.56,2.94 6.56,6.56 0,3.62 -2.94,6.56 -6.56,6.56 H 6.57 c -3.62,0 -6.56,-2.94 -6.56,-6.56 0,-3.62 2.94,-6.56 6.56,-6.56 H 9.41 V 182.39 H 6.57 c -3.62,0 -6.56,-2.94 -6.56,-6.56 0,-3.62 2.94,-6.56 6.56,-6.56 H 9.41 V 78.96 H 6.57 c -3.62,0 -6.56,-2.94 -6.56,-6.56 0,-3.62 2.94,-6.56 6.56,-6.56 H 9.41 V 31.95 H 6.57 c -3.62,0 -6.56,-2.94 -6.56,-6.56 0,-3.62 2.94,-6.56 6.56,-6.56 H 94.04 V 6.59 c 0,-3.62 2.94,-6.56 6.56,-6.56 h 37.61 c 3.62,0 6.56,2.94 6.56,6.56 v 12.24 h 21.65 c 3.62,0 6.56,2.94 6.56,6.56 0,3.62 -2.94,6.56 -6.56,6.56 h -2.84 v 33.89 h 2.84 c 3.62,0 6.56,2.94 6.56,6.56 0,3.62 -2.94,6.56 -6.56,6.56 h -2.84 v 90.31 z M 86.5,161.73 c -13.57,0 -28.21,-9.28 -28.21,-24.29 0,-12.73 20.43,-39.26 24.51,-44.45 1.78,-2.26 5.6,-2.26 7.38,0 4.1,5.19 24.52,31.71 24.52,44.45 0,15.01 -14.64,24.29 -28.21,24.29 z m 0,-58.09 c -8.76,11.81 -18.81,27.7 -18.81,33.8 0,9.2 9.76,14.89 18.81,14.89 9.05,0 18.81,-5.69 18.81,-14.89 0,-6.08 -10.04,-21.99 -18.81,-33.8 z M 22.54,169.27 H 150.47 V 78.96 H 22.54 Z m 0,13.13 v 33.89 H 150.47 V 182.4 Z M 150.47,65.83 V 31.94 H 22.54 V 65.83 Z M 107.18,18.81 h 24.49 v -5.68 h -24.49 z"
   id="path334" />
 </g>
</svg>
