<?xml version="1.0" encoding="UTF-8" standalone="no"?>
<svg
   xmlns:dc="http://purl.org/dc/elements/1.1/"
   xmlns:cc="http://creativecommons.org/ns#"
   xmlns:rdf="http://www.w3.org/1999/02/22-rdf-syntax-ns#"
   xmlns:svg="http://www.w3.org/2000/svg"
   xmlns="http://www.w3.org/2000/svg"
   xmlns:sodipodi="http://sodipodi.sourceforge.net/DTD/sodipodi-0.dtd"
   xmlns:inkscape="http://www.inkscape.org/namespaces/inkscape"
   xml:space="preserve"
   width="128"
   height="128"
   version="1.0"
   shape-rendering="geometricPrecision"
   text-rendering="geometricPrecision"
   image-rendering="optimizeQuality"
   fill-rule="evenodd"
   clip-rule="evenodd"
   viewBox="0 0 128 128"
   id="svg394"
   sodipodi:docname="pdf.svg"
   inkscape:version="1.0.2-2 (e86c870879, 2021-01-15)"><metadata
   id="metadata400"><rdf:RDF><cc:Work
       rdf:about=""><dc:format>image/svg+xml</dc:format><dc:type
         rdf:resource="http://purl.org/dc/dcmitype/StillImage" /><dc:title></dc:title></cc:Work></rdf:RDF></metadata><defs
   id="defs398" /><sodipodi:namedview
   pagecolor="#ffffff"
   bordercolor="#666666"
   borderopacity="1"
   objecttolerance="10"
   gridtolerance="10"
   guidetolerance="10"
   inkscape:pageopacity="0"
   inkscape:pageshadow="2"
   inkscape:window-width="1920"
   inkscape:window-height="1027"
   id="namedview396"
   showgrid="false"
   units="px"
   inkscape:zoom="2.8442708"
   inkscape:cx="48.154967"
   inkscape:cy="101.85533"
   inkscape:window-x="-8"
   inkscape:window-y="22"
   inkscape:window-maximized="1"
   inkscape:current-layer="svg394" />
 <g
   id="Слой_x0020_1"
   transform="matrix(0.18814399,0,0,0.18814399,6.0121408,-3.5834999e-7)">
  <metadata
   id="CorelCorpID_0Corel-Layer" />
  <g
   id="_2828844889168">
   <path
   fill="#000000"
   fill-rule="nonzero"
   d="M 607.25,103.19 513.21,9.16 C 507.31,3.25 499.45,0 491.1,0 H 95.18 C 77.94,0 63.91,14.03 63.91,31.27 V 340.84 H 41.92 C 18.81,340.84 0,359.64 0,382.76 v 191.73 c 0,23.11 18.81,41.92 41.92,41.92 h 330.19 c 17.24,0 31.27,-14.03 31.27,-31.27 V 436.03 c 0,-17.24 -14.03,-31.27 -31.27,-31.27 H 41.92 c -12.12,0 -21.99,-9.87 -21.99,-21.99 0,-12.12 9.87,-21.98 21.99,-21.98 h 21.99 v 11.34 c 0,5.5 4.46,9.97 9.97,9.97 5.5,0 9.96,-4.46 9.96,-9.97 V 31.28 c 0,-6.25 5.09,-11.34 11.34,-11.34 h 384.14 v 96.55 c 0,11.37 9.25,20.62 20.62,20.62 h 96.55 v 511.95 c 0,6.25 -5.09,11.34 -11.34,11.34 H 95.19 c -6.25,0 -11.34,-5.09 -11.34,-11.34 0,-5.5 -4.46,-9.96 -9.96,-9.96 -5.5,0 -9.97,4.46 -9.97,9.96 0,17.24 14.03,31.27 31.27,31.27 h 489.96 c 17.25,0 31.27,-14.03 31.27,-31.27 V 125.32 c 0,-8.35 -3.25,-16.2 -9.16,-22.11 z M 41.93,424.68 h 330.19 c 6.25,0 11.34,5.09 11.34,11.34 v 149.11 c 0,6.26 -5.09,11.34 -11.34,11.34 H 41.93 c -12.12,0 -21.99,-9.87 -21.99,-21.99 V 418.44 c 6.4,3.96 13.93,6.24 21.99,6.24 z m 457.32,-308.2 v -93.1 l 93.79,93.79 h -93.1 c -0.38,0 -0.69,-0.3 -0.69,-0.68 z"
   id="path382" />
   <path
   fill="#000000"
   fill-rule="nonzero"
   d="m 282.39,562.84 c 5.5,0 9.97,-4.46 9.97,-9.97 v -33.13 h 21.59 c 5.5,0 9.97,-4.46 9.97,-9.97 0,-5.51 -4.46,-9.96 -9.97,-9.96 h -21.59 v -21.57 h 24.31 c 5.51,0 9.97,-4.46 9.97,-9.96 0,-5.5 -4.46,-9.97 -9.97,-9.97 h -34.28 c -5.51,0 -9.96,4.46 -9.96,9.97 v 84.59 c 0,5.5 4.46,9.97 9.96,9.97 z"
   id="path384" />
   <path
   fill="#000000"
   fill-rule="nonzero"
   d="m 177.64,559 c 1.87,1.85 4.39,2.89 7.02,2.89 h 0.03 c 0.71,-0.01 17.41,-0.07 24.07,-0.18 24.63,-0.43 42.51,-21.93 42.51,-51.13 0,-30.69 -17.43,-51.31 -43.36,-51.31 h -23.42 c -2.64,0 -5.18,1.05 -7.05,2.93 -1.87,1.87 -2.92,4.42 -2.92,7.06 v 81.33 c 0,0.69 0.07,1.35 0.2,1.99 0.16,2.42 1.18,4.71 2.91,6.42 z m 30.27,-79.8 c 17.27,0 23.43,16.21 23.43,31.38 0,21.28 -11.52,31 -22.92,31.2 -3.17,0.05 -8.83,0.1 -13.83,0.13 -0.04,-9.78 -0.11,-52.54 -0.12,-62.71 h 13.43 z"
   id="path386" />
   <path
   fill="#000000"
   fill-rule="nonzero"
   d="m 94.86,563.15 c 5.51,0 9.97,-4.46 9.97,-9.97 v -27.1 c 4.95,-0.03 10.58,-0.05 13.77,-0.05 19.01,0 34.48,-15.25 34.48,-34.01 0,-18.75 -15.47,-34.01 -34.48,-34.01 H 94.87 c -2.64,0 -5.18,1.05 -7.05,2.93 -1.87,1.87 -2.9,4.4 -2.9,7.04 h -0.01 v 85.21 c 0,5.5 4.46,9.97 9.96,9.97 z m 23.73,-85.21 c 7.89,0 14.55,6.45 14.55,14.08 0,7.63 -6.66,14.08 -14.55,14.08 -3.17,0 -8.72,0.03 -13.65,0.05 -0.02,-5.09 -0.06,-22.89 -0.08,-28.21 z"
   id="path388" />
   <path
   fill="#000000"
   fill-rule="nonzero"
   d="m 281.56,288.95 c -24.49,7.73 -49.64,18.43 -63.04,32.27 -11.07,11.42 -13.07,24.67 -5.5,36.36 5.14,7.93 12.19,12.08 20.13,12.08 3.04,0 6.22,-0.62 9.47,-1.85 11.71,-4.48 24.36,-17.22 38.67,-38.95 4.62,-7.01 9.29,-14.81 13.95,-23.24 1.69,-0.5 3.42,-1 5.18,-1.49 28.12,-7.87 59.95,-13.58 87.87,-15.97 17.02,16.46 34.62,29.28 49.62,32.78 16.5,3.85 29.58,-3.69 34.98,-20.18 3.27,-9.99 -0.49,-19.41 -10.08,-25.19 -9.86,-5.95 -26.99,-8.83 -50.9,-8.55 -5.1,0.05 -10.47,0.26 -16.06,0.62 -10.75,-11.08 -21.92,-24.32 -32.69,-38.95 -8.34,-11.32 -15.79,-22.66 -22.1,-33.43 0.68,-2.36 1.34,-4.69 1.95,-6.98 6.82,-25.26 9.25,-44.6 7.22,-57.49 -2.92,-18.61 -14.93,-21.25 -19.96,-21.52 -17.12,-0.93 -28.65,7.71 -30.85,23.11 -1.75,12.23 2.37,29.05 12.22,50 2.34,4.98 4.97,10.11 7.85,15.36 -1.08,3.45 -2.24,7.04 -3.5,10.78 -9.19,27.18 -21.63,56.13 -34.46,80.46 z m -47.86,60.71 c -0.71,0.09 -1.91,0.24 -3.96,-2.93 -1.67,-2.57 -1.76,-4.51 -0.34,-7.17 3.33,-6.2 14.69,-14.91 36.67,-23.9 -15.34,23.8 -26.81,33.3 -32.38,33.99 z m 220.41,-55.8 c -0.01,0.13 -0.05,0.35 -0.16,0.68 -2.49,7.6 -5.83,8.31 -11.52,6.99 -6.95,-1.62 -15.77,-6.75 -25.61,-14.6 26.65,0.21 35.93,5.01 37.29,6.93 z M 319.17,135.16 c 0.41,-2.84 0.86,-6.05 8.45,-6.05 0.48,0 0.98,0.01 1.51,0.03 2.27,2.77 3.44,15.07 -1.81,39.42 -6.19,-14.18 -9.2,-25.97 -8.15,-33.4 z m 13.88,85.05 c 4.37,6.72 9.08,13.51 14.07,20.28 7.15,9.71 15.23,19.81 23.78,29.44 -9.89,1.19 -20.09,2.73 -30.29,4.58 -6.91,1.26 -18.94,3.62 -33.03,7.14 3.13,-6.48 6.2,-13.2 9.23,-20.1 5.99,-13.72 11.5,-27.77 16.25,-41.34 z"
   id="path390" />
  </g>
 </g>
</svg>
