<?xml version="1.0" encoding="UTF-8" standalone="no"?>
<svg
   xmlns:dc="http://purl.org/dc/elements/1.1/"
   xmlns:cc="http://creativecommons.org/ns#"
   xmlns:rdf="http://www.w3.org/1999/02/22-rdf-syntax-ns#"
   xmlns:svg="http://www.w3.org/2000/svg"
   xmlns="http://www.w3.org/2000/svg"
   xmlns:sodipodi="http://sodipodi.sourceforge.net/DTD/sodipodi-0.dtd"
   xmlns:inkscape="http://www.inkscape.org/namespaces/inkscape"
   xml:space="preserve"
   width="128"
   height="128"
   version="1.0"
   style="clip-rule:evenodd;fill-rule:evenodd;image-rendering:optimizeQuality;shape-rendering:geometricPrecision;text-rendering:geometricPrecision"
   viewBox="0 0 128 128"
   id="svg18"
   sodipodi:docname="phone.svg"
   inkscape:version="1.0.2-2 (e86c870879, 2021-01-15)"><metadata
   id="metadata22"><rdf:RDF><cc:Work
       rdf:about=""><dc:format>image/svg+xml</dc:format><dc:type
         rdf:resource="http://purl.org/dc/dcmitype/StillImage" /><dc:title></dc:title></cc:Work></rdf:RDF></metadata><sodipodi:namedview
   pagecolor="#ffffff"
   bordercolor="#666666"
   borderopacity="1"
   objecttolerance="10"
   gridtolerance="10"
   guidetolerance="10"
   inkscape:pageopacity="0"
   inkscape:pageshadow="2"
   inkscape:window-width="1920"
   inkscape:window-height="1027"
   id="namedview20"
   showgrid="false"
   units="px"
   inkscape:zoom="1.8763368"
   inkscape:cx="-20.62514"
   inkscape:cy="115.00518"
   inkscape:window-x="-8"
   inkscape:window-y="22"
   inkscape:window-maximized="1"
   inkscape:current-layer="svg18" />
 <defs
   id="defs12">
  <style
   type="text/css"
   id="style10">
   <![CDATA[
    .fil0 {fill:black;fill-rule:nonzero}
   ]]>
  </style>
 </defs>
 <g
   id="Слой_x0020_1"
   transform="matrix(0.04875262,0,0,0.04875262,0.01392927,-1.905e-6)">
  <metadata
   id="CorelCorpID_0Corel-Layer" />
  <path
   class="fil0"
   d="m 1771.56,2356.61 c -48.22,33.74 -178.4,117.31 -474.64,-70.74 C 1020.49,2110.7 419.95,1651.06 240.49,752.66 189.61,499.27 222.83,365.35 342.3,282.84 546.38,141.95 743,266.78 783.71,340.7 935.84,615 694.25,771.97 631.57,806.78 c -40.18,21.98 -65.36,62.68 -61.59,108.21 29.46,333.19 399.64,868.39 694.28,1004.98 40.7,18.75 91.05,12.32 121.6,-20.35 43.4,-46.61 296.79,-217.51 486.41,20.35 103.94,129.11 49.3,332.15 -100.71,436.63 z m 744.1,-1629.66 h -744.1 L 2000.3,516.43 c 44.47,-40.72 47.14,-110.35 6.44,-154.83 -40.73,-44.47 -109.82,-47.14 -154.28,-6.43 l -435,400.19 c -22.5,20.9 -35.37,49.81 -35.37,80.36 0,30.53 12.86,60.01 35.37,80.36 l 435,400.16 c 20.87,19.3 101.78,45.01 154.28,-6.41 43.39,-42.33 38.03,-113.58 -6.44,-154.83 L 1771.56,944.45 h 744.1 c 60.54,0 109.28,-48.72 109.28,-109.28 0,-59.46 -48.75,-108.21 -109.28,-108.21 z M 1297.99,1688.01 C 1098.16,1554.08 856.55,1202.69 799.23,962.69 801.9,961.07 1239.6,670.16 963.68,216.43 883.87,85.72 712.45,0 541.55,0 426.38,0 313.87,35.88 216.91,103.4 -30.05,275.36 -19.32,547.5 24.6,788.58 c 130.71,717.85 606.96,1357.47 1161.95,1686.41 124.27,73.93 272.67,150.51 432.31,150.51 99.11,0 192.86,-29.97 277.51,-88.91 248.57,-173.04 320.36,-536.26 156.43,-740.89 -332.68,-414.65 -752.15,-109.81 -754.81,-107.7 z"
   id="path15" />
 </g>
</svg>
