<?xml version="1.0" encoding="UTF-8" standalone="no"?>
<svg
   xmlns:dc="http://purl.org/dc/elements/1.1/"
   xmlns:cc="http://creativecommons.org/ns#"
   xmlns:rdf="http://www.w3.org/1999/02/22-rdf-syntax-ns#"
   xmlns:svg="http://www.w3.org/2000/svg"
   xmlns="http://www.w3.org/2000/svg"
   xmlns:sodipodi="http://sodipodi.sourceforge.net/DTD/sodipodi-0.dtd"
   xmlns:inkscape="http://www.inkscape.org/namespaces/inkscape"
   xml:space="preserve"
   width="128"
   height="128"
   version="1.0"
   style="clip-rule:evenodd;fill-rule:evenodd;image-rendering:optimizeQuality;shape-rendering:geometricPrecision;text-rendering:geometricPrecision"
   viewBox="0 0 128 128"
   id="svg106"
   sodipodi:docname="printer.svg"
   inkscape:version="1.0.2-2 (e86c870879, 2021-01-15)"><metadata
   id="metadata110"><rdf:RDF><cc:Work
       rdf:about=""><dc:format>image/svg+xml</dc:format><dc:type
         rdf:resource="http://purl.org/dc/dcmitype/StillImage" /><dc:title></dc:title></cc:Work></rdf:RDF></metadata><sodipodi:namedview
   pagecolor="#ffffff"
   bordercolor="#666666"
   borderopacity="1"
   objecttolerance="10"
   gridtolerance="10"
   guidetolerance="10"
   inkscape:pageopacity="0"
   inkscape:pageshadow="2"
   inkscape:window-width="1920"
   inkscape:window-height="1027"
   id="namedview108"
   showgrid="false"
   units="px"
   scale-x="1"
   inkscape:zoom="2.7994792"
   inkscape:cx="-49.63949"
   inkscape:cy="72.202385"
   inkscape:window-x="-8"
   inkscape:window-y="22"
   inkscape:window-maximized="1"
   inkscape:current-layer="svg106" />
 <defs
   id="defs100">
  <style
   type="text/css"
   id="style98">
   <![CDATA[
    .fil0 {fill:#1F1B20}
   ]]>
  </style>
 </defs>
 <g
   id="Слой_x0020_1"
   style="fill:#000000"
   transform="matrix(0.71500391,0,0,0.71500391,1.5900007e-8,-0.003575)">
  <metadata
   id="CorelCorpID_0Corel-Layer" />
  <path
   class="fil0"
   d="m 142.31,134.97 v 24.29 c 0,10.9 -8.87,19.76 -19.76,19.76 H 56.47 c -10.9,0 -19.76,-8.87 -19.76,-19.76 V 134.97 H 19.76 C 8.86,134.97 0,126.1 0,115.21 V 63.82 C 0,52.92 8.87,44.06 19.76,44.06 H 36.71 V 19.77 c 0,-10.9 8.87,-19.76 19.76,-19.76 h 66.08 c 10.9,0 19.76,8.87 19.76,19.76 v 24.29 h 16.95 c 10.9,0 19.76,8.87 19.76,19.76 v 51.39 c 0,10.9 -8.87,19.76 -19.76,19.76 z m 0,-10.16 h 16.95 c 5.29,0 9.6,-4.31 9.6,-9.6 V 63.82 c 0,-5.29 -4.31,-9.6 -9.6,-9.6 H 19.77 c -5.29,0 -9.6,4.31 -9.6,9.6 v 51.39 c 0,5.29 4.31,9.6 9.6,9.6 h 16.95 v -24.29 c 0,-2.8 2.28,-5.08 5.08,-5.08 h 95.44 c 2.8,0 5.08,2.28 5.08,5.08 v 24.29 z M 46.87,105.6 v 53.65 c 0,5.29 4.31,9.6 9.6,9.6 h 66.08 c 5.29,0 9.6,-4.31 9.6,-9.6 V 105.6 Z M 78.5,124.1 H 63.82 c -2.8,0 -5.08,-2.28 -5.08,-5.08 0,-2.8 2.28,-5.08 5.08,-5.08 H 78.5 c 2.8,0 5.08,2.28 5.08,5.08 0,2.8 -2.28,5.08 -5.08,5.08 z m 29.37,18.21 H 63.82 c -2.8,0 -5.08,-2.28 -5.08,-5.08 0,-2.8 2.28,-5.08 5.08,-5.08 h 44.05 c 2.8,0 5.08,2.28 5.08,5.08 0,2.8 -2.28,5.08 -5.08,5.08 z m 0,18.21 H 63.82 c -2.8,0 -5.08,-2.28 -5.08,-5.08 0,-2.8 2.28,-5.08 5.08,-5.08 h 44.05 c 2.8,0 5.08,2.28 5.08,5.08 0,2.8 -2.28,5.08 -5.08,5.08 z m -61,-116.47 h 85.28 V 19.76 c 0,-5.29 -4.31,-9.6 -9.6,-9.6 H 56.47 c -5.29,0 -9.6,4.31 -9.6,9.6 z"
   id="path103"
   style="fill:#000000" />
 </g>
</svg>
