<?xml version="1.0" encoding="UTF-8" standalone="no"?>
<svg
   xmlns:dc="http://purl.org/dc/elements/1.1/"
   xmlns:cc="http://creativecommons.org/ns#"
   xmlns:rdf="http://www.w3.org/1999/02/22-rdf-syntax-ns#"
   xmlns:svg="http://www.w3.org/2000/svg"
   xmlns="http://www.w3.org/2000/svg"
   xmlns:sodipodi="http://sodipodi.sourceforge.net/DTD/sodipodi-0.dtd"
   xmlns:inkscape="http://www.inkscape.org/namespaces/inkscape"
   xml:space="preserve"
   width="128"
   height="128"
   version="1.0"
   style="clip-rule:evenodd;fill-rule:evenodd;image-rendering:optimizeQuality;shape-rendering:geometricPrecision;text-rendering:geometricPrecision"
   viewBox="0 0 128 128"
   id="svg18"
   sodipodi:docname="quotes.svg"
   inkscape:version="1.0.2-2 (e86c870879, 2021-01-15)"><metadata
   id="metadata22"><rdf:RDF><cc:Work
       rdf:about=""><dc:format>image/svg+xml</dc:format><dc:type
         rdf:resource="http://purl.org/dc/dcmitype/StillImage" /><dc:title></dc:title></cc:Work></rdf:RDF></metadata><sodipodi:namedview
   pagecolor="#ffffff"
   bordercolor="#666666"
   borderopacity="1"
   objecttolerance="10"
   gridtolerance="10"
   guidetolerance="10"
   inkscape:pageopacity="0"
   inkscape:pageshadow="2"
   inkscape:window-width="1920"
   inkscape:window-height="1027"
   id="namedview20"
   showgrid="false"
   units="px"
   inkscape:zoom="1.9522814"
   inkscape:cx="-80.121956"
   inkscape:cy="101.61213"
   inkscape:window-x="-8"
   inkscape:window-y="22"
   inkscape:window-maximized="1"
   inkscape:current-layer="svg18" />
 <defs
   id="defs12">
  <style
   type="text/css"
   id="style10">
   <![CDATA[
    .fil0 {fill:black;fill-rule:nonzero}
   ]]>
  </style>
 </defs>
 <g
   id="Слой_x0020_1"
   transform="matrix(1.0348495,0,0,1.0348495,-2.673275e-4,16.562499)">
  <metadata
   id="CorelCorpID_0Corel-Layer" />
  <path
   class="fil0"
   d="m 42.04,0 10.97,15.23 c -3.86,2.64 -7.21,5.23 -10.05,7.77 -2.84,2.54 -5.23,5.13 -7.16,7.77 -1.93,2.64 -3.45,5.28 -4.57,7.92 -1.12,2.64 -1.88,5.38 -2.28,8.22 h 4.87 c 3.45,0 6.85,0.71 10.21,2.13 3.35,1.42 6.09,3.66 8.22,6.7 2.13,3.05 3.2,7.01 3.2,11.88 0,6.9 -2.44,12.64 -7.31,17.21 -4.88,4.57 -11.27,6.85 -19.19,6.85 -9.34,0 -16.5,-2.74 -21.48,-8.22 C 2.49,77.98 0,71.07 0,62.74 0,55.63 1.58,48.27 4.72,40.66 7.86,33.04 12.54,25.73 18.73,18.73 24.93,11.72 32.69,5.48 42.03,0 Z m 68.54,0 10.97,15.23 c -7.72,5.08 -13.5,10.21 -17.36,15.38 -3.86,5.18 -6.09,10.61 -6.7,16.3 h 4.87 c 3.45,0 6.85,0.71 10.21,2.13 3.35,1.42 6.04,3.66 8.07,6.7 2.03,3.05 3.05,7.01 3.05,11.88 0,6.9 -2.39,12.64 -7.16,17.21 -4.77,4.57 -11.12,6.85 -19.04,6.85 -9.34,0 -16.5,-2.74 -21.48,-8.22 -4.98,-5.48 -7.47,-12.39 -7.47,-20.72 0,-7.11 1.58,-14.47 4.72,-22.08 C 76.4,33.04 81.08,25.73 87.27,18.73 93.47,11.72 101.23,5.48 110.57,0 Z"
   id="path15" />
 </g>
</svg>
