<?xml version="1.0" encoding="UTF-8" standalone="no"?>
<svg
   xmlns:dc="http://purl.org/dc/elements/1.1/"
   xmlns:cc="http://creativecommons.org/ns#"
   xmlns:rdf="http://www.w3.org/1999/02/22-rdf-syntax-ns#"
   xmlns:svg="http://www.w3.org/2000/svg"
   xmlns="http://www.w3.org/2000/svg"
   xmlns:sodipodi="http://sodipodi.sourceforge.net/DTD/sodipodi-0.dtd"
   xmlns:inkscape="http://www.inkscape.org/namespaces/inkscape"
   xml:space="preserve"
   width="128"
   height="128"
   version="1.0"
   shape-rendering="geometricPrecision"
   text-rendering="geometricPrecision"
   image-rendering="optimizeQuality"
   fill-rule="evenodd"
   clip-rule="evenodd"
   viewBox="0 0 128 128"
   id="svg329"
   sodipodi:docname="rest.svg"
   inkscape:version="1.0.2-2 (e86c870879, 2021-01-15)"><metadata
   id="metadata335"><rdf:RDF><cc:Work
       rdf:about=""><dc:format>image/svg+xml</dc:format><dc:type
         rdf:resource="http://purl.org/dc/dcmitype/StillImage" /><dc:title></dc:title></cc:Work></rdf:RDF></metadata><defs
   id="defs333" /><sodipodi:namedview
   pagecolor="#ffffff"
   bordercolor="#666666"
   borderopacity="1"
   objecttolerance="10"
   gridtolerance="10"
   guidetolerance="10"
   inkscape:pageopacity="0"
   inkscape:pageshadow="2"
   inkscape:window-width="1920"
   inkscape:window-height="1027"
   id="namedview331"
   showgrid="false"
   units="px"
   inkscape:zoom="13.002381"
   inkscape:cx="25.528292"
   inkscape:cy="33.070866"
   inkscape:window-x="-8"
   inkscape:window-y="22"
   inkscape:window-maximized="1"
   inkscape:current-layer="svg329" />
 <g
   id="Слой_x0020_1"
   style="fill:#000000"
   transform="matrix(0.56048637,0,0,0.56048637,0.0020094,7.9974039)">
  <metadata
   id="CorelCorpID_0Corel-Layer" />
  <g
   id="_2828876973136"
   style="fill:#000000">
   <path
   fill="black"
   fill-rule="nonzero"
   d="M 176.04,76.12 H 42.81 c -7.87,0 -14.27,6.4 -14.27,14.27 v 9.52 c 0,33.95 18.75,64.75 48.94,80.36 2.33,1.2 5.21,0.29 6.42,-2.04 1.2,-2.33 0.29,-5.21 -2.05,-6.41 -27,-13.97 -43.79,-41.52 -43.79,-71.91 v -9.52 c 0,-2.63 2.13,-4.76 4.76,-4.76 h 133.23 c 2.63,0 4.76,2.13 4.76,4.76 v 9.52 c 0,30.39 -16.79,57.94 -43.8,71.9 -2.34,1.21 -3.25,4.08 -2.05,6.41 0.85,1.64 2.51,2.58 4.24,2.58 0.74,0 1.48,-0.17 2.18,-0.53 30.19,-15.61 48.95,-46.39 48.95,-80.35 V 90.4 c 0,-7.87 -6.4,-14.27 -14.27,-14.27 z"
   id="path315"
   style="fill:#000000" />
   <path
   fill="black"
   fill-rule="nonzero"
   d="m 218.51,174.22 c -0.74,-1.78 -2.47,-2.94 -4.4,-2.94 H 4.76 c -1.92,0 -3.65,1.16 -4.4,2.94 -0.74,1.78 -0.33,3.83 1.03,5.19 l 10.67,10.67 c 6.3,6.29 14.66,9.76 23.55,9.76 h 147.63 c 8.9,0 17.26,-3.46 23.57,-9.76 l 10.67,-10.67 c 1.36,-1.36 1.77,-3.41 1.03,-5.19 z m -18.43,9.14 c -4.49,4.49 -10.48,6.97 -16.82,6.97 H 35.62 c -6.35,0 -12.33,-2.47 -16.82,-6.97 l -2.55,-2.55 h 186.39 l -2.55,2.55 z"
   id="path317"
   style="fill:#000000" />
   <path
   fill="black"
   fill-rule="nonzero"
   d="m 219.18,98.59 c -12.82,-8.24 -33.3,0.7 -35.59,1.74 -2.39,1.1 -3.45,3.91 -2.36,6.31 1.09,2.4 3.9,3.45 6.31,2.36 4.59,-2.08 19.3,-7.02 26.49,-2.39 3.25,2.08 4.83,6.13 4.83,12.33 0,19.05 -38.43,30.57 -53.26,33.4 l -3.37,0.66 c -2.58,0.5 -4.25,3.01 -3.75,5.59 0.45,2.26 2.44,3.83 4.66,3.83 0.31,0 0.61,-0.03 0.92,-0.1 l 3.34,-0.65 c 2.49,-0.48 60.97,-11.94 60.97,-42.74 0,-9.57 -3.1,-16.42 -9.2,-20.36 z"
   id="path319"
   style="fill:#000000" />
   <path
   fill="black"
   fill-rule="nonzero"
   d="m 146.47,36.27 c 7.74,-9.67 7.74,-24.81 0,-34.48 -1.64,-2.06 -4.62,-2.4 -6.69,-0.74 -2.06,1.65 -2.39,4.64 -0.74,6.69 4.9,6.12 4.9,16.46 -0.01,22.6 -7.75,9.67 -7.75,24.81 0,34.48 0.94,1.18 2.32,1.79 3.72,1.79 1.04,0 2.09,-0.34 2.97,-1.05 2.06,-1.65 2.39,-4.64 0.74,-6.69 -4.91,-6.12 -4.91,-16.47 0.01,-22.6 z"
   id="path321"
   style="fill:#000000" />
   <path
   fill="black"
   fill-rule="nonzero"
   d="m 117.89,36.27 c 7.75,-9.67 7.75,-24.81 0,-34.48 -1.64,-2.06 -4.64,-2.39 -6.69,-0.74 -2.06,1.65 -2.39,4.64 -0.74,6.69 4.91,6.12 4.91,16.46 -0.01,22.6 -7.74,9.67 -7.74,24.81 0,34.48 0.94,1.18 2.32,1.79 3.72,1.79 1.04,0 2.08,-0.34 2.97,-1.05 2.05,-1.65 2.39,-4.63 0.74,-6.69 -4.9,-6.12 -4.9,-16.47 0.01,-22.6 z"
   id="path323"
   style="fill:#000000" />
   <path
   fill="black"
   fill-rule="nonzero"
   d="m 89.38,36.28 c 7.74,-9.67 7.74,-24.81 0,-34.48 -1.64,-2.06 -4.62,-2.4 -6.69,-0.74 -2.05,1.64 -2.38,4.64 -0.74,6.68 4.9,6.12 4.9,16.46 -0.01,22.6 -7.75,9.67 -7.75,24.81 0,34.48 0.94,1.18 2.32,1.79 3.72,1.79 1.04,0 2.09,-0.34 2.97,-1.04 2.06,-1.64 2.39,-4.64 0.74,-6.69 -4.91,-6.13 -4.91,-16.47 0.01,-22.6 z"
   id="path325"
   style="fill:#000000" />
  </g>
 </g>
</svg>
