<?xml version="1.0" encoding="UTF-8" standalone="no"?>
<svg
   xmlns:dc="http://purl.org/dc/elements/1.1/"
   xmlns:cc="http://creativecommons.org/ns#"
   xmlns:rdf="http://www.w3.org/1999/02/22-rdf-syntax-ns#"
   xmlns:svg="http://www.w3.org/2000/svg"
   xmlns="http://www.w3.org/2000/svg"
   xmlns:sodipodi="http://sodipodi.sourceforge.net/DTD/sodipodi-0.dtd"
   xmlns:inkscape="http://www.inkscape.org/namespaces/inkscape"
   xml:space="preserve"
   width="128"
   height="128"
   version="1.0"
   shape-rendering="geometricPrecision"
   text-rendering="geometricPrecision"
   image-rendering="optimizeQuality"
   fill-rule="evenodd"
   clip-rule="evenodd"
   viewBox="0 0 128 128"
   id="svg246"
   sodipodi:docname="room.svg"
   inkscape:version="1.0.2-2 (e86c870879, 2021-01-15)"><metadata
   id="metadata252"><rdf:RDF><cc:Work
       rdf:about=""><dc:format>image/svg+xml</dc:format><dc:type
         rdf:resource="http://purl.org/dc/dcmitype/StillImage" /><dc:title></dc:title></cc:Work></rdf:RDF></metadata><defs
   id="defs250" /><sodipodi:namedview
   pagecolor="#ffffff"
   bordercolor="#666666"
   borderopacity="1"
   objecttolerance="10"
   gridtolerance="10"
   guidetolerance="10"
   inkscape:pageopacity="0"
   inkscape:pageshadow="2"
   inkscape:window-width="1920"
   inkscape:window-height="1027"
   id="namedview248"
   showgrid="false"
   units="px"
   inkscape:zoom="1.4221354"
   inkscape:cx="-9.2433584"
   inkscape:cy="154.89977"
   inkscape:window-x="-8"
   inkscape:window-y="22"
   inkscape:window-maximized="1"
   inkscape:current-layer="svg246" />
 <g
   id="Слой_x0020_1"
   style="fill:#000000"
   transform="matrix(0.16334448,0,0,0.16334448,0,-0.01673311)">
  <metadata
   id="CorelCorpID_0Corel-Layer" />
  <path
   fill="#1F1B20"
   d="M 738.85,44.76 H 284.48 v 357.12 h 284.57 c 12.36,0 22.38,10.02 22.38,22.38 0,12.36 -10.02,22.38 -22.38,22.38 H 284.48 v 101.7 c 0,12.36 -10.02,22.38 -22.38,22.38 -12.37,0 -22.38,-10.03 -22.38,-22.38 V 44.75 H 44.78 v 694.08 h 194.94 v -72.94 c 0,-12.36 10.02,-22.39 22.38,-22.39 12.36,0 22.38,10.03 22.38,22.39 v 72.94 h 454.37 v -292.2 h -58.78 c -12.37,0 -22.38,-10.02 -22.38,-22.38 0,-12.37 10.02,-22.38 22.38,-22.38 h 58.78 V 224.05 c 0,-12.36 10.02,-22.38 22.38,-22.38 12.36,0 22.38,10.02 22.38,22.38 v 537.17 c 0,12.36 -10.03,22.38 -22.38,22.38 H 22.38 C 10.02,783.6 0,773.58 0,761.22 V 22.36 C 0,10 10.02,-0.02 22.38,-0.02 h 738.86 c 12.36,0 22.38,10.02 22.38,22.38 v 51.4 c 0,12.36 -10.03,22.39 -22.38,22.39 -12.36,0 -22.39,-10.03 -22.39,-22.39 V 44.74 Z"
   id="path243"
   style="fill:#000000" />
 </g>
</svg>
