<?xml version="1.0" encoding="UTF-8" standalone="no"?>
<svg
   xmlns:dc="http://purl.org/dc/elements/1.1/"
   xmlns:cc="http://creativecommons.org/ns#"
   xmlns:rdf="http://www.w3.org/1999/02/22-rdf-syntax-ns#"
   xmlns:svg="http://www.w3.org/2000/svg"
   xmlns="http://www.w3.org/2000/svg"
   xmlns:sodipodi="http://sodipodi.sourceforge.net/DTD/sodipodi-0.dtd"
   xmlns:inkscape="http://www.inkscape.org/namespaces/inkscape"
   xml:space="preserve"
   width="128"
   height="128"
   version="1.0"
   style="clip-rule:evenodd;fill-rule:evenodd;image-rendering:optimizeQuality;shape-rendering:geometricPrecision;text-rendering:geometricPrecision"
   viewBox="0 0 128 128"
   id="svg220"
   sodipodi:docname="m-glass.svg"
   inkscape:version="1.0.2-2 (e86c870879, 2021-01-15)"><metadata
   id="metadata224"><rdf:RDF><cc:Work
       rdf:about=""><dc:format>image/svg+xml</dc:format><dc:type
         rdf:resource="http://purl.org/dc/dcmitype/StillImage" /><dc:title></dc:title></cc:Work></rdf:RDF></metadata><sodipodi:namedview
   pagecolor="#ffffff"
   bordercolor="#666666"
   borderopacity="1"
   objecttolerance="10"
   gridtolerance="10"
   guidetolerance="10"
   inkscape:pageopacity="0"
   inkscape:pageshadow="2"
   inkscape:window-width="1920"
   inkscape:window-height="1027"
   id="namedview222"
   showgrid="false"
   units="px"
   inkscape:zoom="2.8442708"
   inkscape:cx="21.784152"
   inkscape:cy="113.18275"
   inkscape:window-x="-8"
   inkscape:window-y="22"
   inkscape:window-maximized="1"
   inkscape:current-layer="svg220" />
 <defs
   id="defs214">
  <style
   type="text/css"
   id="style212">
   <![CDATA[
    .fil0 {fill:black;fill-rule:nonzero}
   ]]>
  </style>
 </defs>
 <g
   id="Слой_x0020_1"
   transform="matrix(0.9918444,0,0,0.9918444,0.00495951,2.8449999e-7)">
  <metadata
   id="CorelCorpID_0Corel-Layer" />
  <path
   class="fil0"
   d="M 127.46,119.85 98.47,90.86 c 8.19,-9.93 12.64,-22.28 12.64,-35.29 0,-14.85 -5.77,-28.78 -16.28,-39.29 C 84.35,5.77 70.39,0 55.57,0 40.74,0 26.79,5.77 16.28,16.28 5.77,26.76 0,40.72 0,55.57 0,70.4 5.77,84.35 16.28,94.86 c 10.48,10.48 24.44,16.28 39.29,16.28 13.03,0 25.39,-4.45 35.29,-12.64 l 28.99,28.97 c 2.11,2.11 5.5,2.11 7.61,0 2.11,-2.11 2.11,-5.5 0,-7.61 z M 23.89,87.22 C 15.41,78.77 10.75,67.52 10.75,55.57 c 0,-11.96 4.66,-23.23 13.11,-31.68 8.45,-8.45 19.7,-13.11 31.68,-13.11 11.96,0 23.23,4.66 31.68,13.11 8.45,8.45 13.11,19.7 13.11,31.68 0,11.96 -4.66,23.23 -13.11,31.68 -8.45,8.45 -19.73,13.11 -31.68,13.11 -11.96,0 -23.2,-4.66 -31.65,-13.14 z"
   id="path217" />
 </g>
</svg>
