<?xml version="1.0" encoding="UTF-8" standalone="no"?>
<svg
   xmlns:dc="http://purl.org/dc/elements/1.1/"
   xmlns:cc="http://creativecommons.org/ns#"
   xmlns:rdf="http://www.w3.org/1999/02/22-rdf-syntax-ns#"
   xmlns:svg="http://www.w3.org/2000/svg"
   xmlns="http://www.w3.org/2000/svg"
   xmlns:sodipodi="http://sodipodi.sourceforge.net/DTD/sodipodi-0.dtd"
   xmlns:inkscape="http://www.inkscape.org/namespaces/inkscape"
   xml:space="preserve"
   width="128"
   height="128"
   version="1.0"
   style="clip-rule:evenodd;fill-rule:evenodd;image-rendering:optimizeQuality;shape-rendering:geometricPrecision;text-rendering:geometricPrecision"
   viewBox="0 0 128 128"
   id="svg181"
   sodipodi:docname="shield.svg"
   inkscape:version="1.0.2-2 (e86c870879, 2021-01-15)"><metadata
   id="metadata185"><rdf:RDF><cc:Work
       rdf:about=""><dc:format>image/svg+xml</dc:format><dc:type
         rdf:resource="http://purl.org/dc/dcmitype/StillImage" /><dc:title></dc:title></cc:Work></rdf:RDF></metadata><sodipodi:namedview
   pagecolor="#ffffff"
   bordercolor="#666666"
   borderopacity="1"
   objecttolerance="10"
   gridtolerance="10"
   guidetolerance="10"
   inkscape:pageopacity="0"
   inkscape:pageshadow="2"
   inkscape:window-width="1920"
   inkscape:window-height="1027"
   id="namedview183"
   showgrid="false"
   units="px"
   inkscape:zoom="2.8442708"
   inkscape:cx="39.142003"
   inkscape:cy="96.397574"
   inkscape:window-x="-8"
   inkscape:window-y="22"
   inkscape:window-maximized="1"
   inkscape:current-layer="svg181" />
 <defs
   id="defs175">
  <style
   type="text/css"
   id="style173">
   <![CDATA[
    .fil0 {fill:black;fill-rule:nonzero}
   ]]>
  </style>
 </defs>
 <g
   id="Слой_x0020_1"
   style="fill:#000000"
   transform="matrix(0.33073013,0,0,0.33073013,7.4749135,-0.00248134)">
  <metadata
   id="CorelCorpID_0Corel-Layer" />
  <path
   class="fil0"
   d="m 341.65,90.45 c -0.21,-4.08 -2.6,-7.72 -6.25,-9.55 L 175.99,1.2 c -3.19,-1.59 -6.95,-1.59 -10.14,0 L 6.44,80.9 c -3.65,1.83 -6.04,5.47 -6.25,9.55 -0.12,2.32 -2.74,57.58 16.08,121.73 11.14,37.96 27.52,71.11 48.69,98.54 26.68,34.56 60.97,59.99 101.92,75.57 1.3,0.49 2.66,0.74 4.03,0.74 1.37,0 2.73,-0.25 4.03,-0.74 40.95,-15.58 75.24,-41.01 101.92,-75.57 21.17,-27.43 37.56,-60.58 48.69,-98.54 18.82,-64.16 16.2,-119.41 16.08,-121.73 z M 289.55,108.68 176,51.9 c -3.19,-1.59 -6.95,-1.59 -10.14,0 L 52.31,108.68 c -4.07,2.03 -6.53,6.3 -6.25,10.85 1.23,19.78 4.74,50.11 14.46,82.3 19.44,64.36 54.89,109.65 105.38,134.62 1.59,0.78 3.31,1.17 5.03,1.17 1.72,0 3.44,-0.39 5.02,-1.17 50.49,-24.97 85.95,-70.25 105.38,-134.62 9.72,-32.19 13.23,-62.52 14.46,-82.3 0.28,-4.54 -2.17,-8.81 -6.24,-10.85 z m -29.93,86.59 c -16.88,55.9 -46.71,95.65 -88.7,118.25 C 128.93,290.93 99.1,251.18 82.22,195.27 74.27,168.94 70.75,143.87 69.23,125.57 l 101.69,-50.84 101.69,50.84 c -1.53,18.31 -5.04,43.38 -12.99,69.7 z m 44.01,11.15 C 280.54,284.53 235.91,337.37 170.93,363.51 105.95,337.37 61.31,284.53 38.23,206.42 23.97,158.15 22.65,114.21 22.72,98.12 l 148.21,-74.1 148.21,74.1 c 0.07,16.1 -1.24,60.04 -15.5,108.3 z"
   id="path178"
   style="fill:#000000" />
 </g>
</svg>
