<?xml version="1.0" encoding="UTF-8" standalone="no"?>
<svg
   xmlns:dc="http://purl.org/dc/elements/1.1/"
   xmlns:cc="http://creativecommons.org/ns#"
   xmlns:rdf="http://www.w3.org/1999/02/22-rdf-syntax-ns#"
   xmlns:svg="http://www.w3.org/2000/svg"
   xmlns="http://www.w3.org/2000/svg"
   xmlns:sodipodi="http://sodipodi.sourceforge.net/DTD/sodipodi-0.dtd"
   xmlns:inkscape="http://www.inkscape.org/namespaces/inkscape"
   xml:space="preserve"
   width="128"
   height="128"
   version="1.0"
   shape-rendering="geometricPrecision"
   text-rendering="geometricPrecision"
   image-rendering="optimizeQuality"
   fill-rule="evenodd"
   clip-rule="evenodd"
   viewBox="0 0 128 128"
   id="svg135"
   sodipodi:docname="shop.svg"
   inkscape:version="1.0.2-2 (e86c870879, 2021-01-15)"><metadata
   id="metadata141"><rdf:RDF><cc:Work
       rdf:about=""><dc:format>image/svg+xml</dc:format><dc:type
         rdf:resource="http://purl.org/dc/dcmitype/StillImage" /><dc:title></dc:title></cc:Work></rdf:RDF></metadata><defs
   id="defs139" /><sodipodi:namedview
   pagecolor="#ffffff"
   bordercolor="#666666"
   borderopacity="1"
   objecttolerance="10"
   gridtolerance="10"
   guidetolerance="10"
   inkscape:pageopacity="0"
   inkscape:pageshadow="2"
   inkscape:window-width="1920"
   inkscape:window-height="1027"
   id="namedview137"
   showgrid="false"
   units="px"
   inkscape:zoom="2.0112032"
   inkscape:cx="-14.319362"
   inkscape:cy="148.98754"
   inkscape:window-x="-8"
   inkscape:window-y="22"
   inkscape:window-maximized="1"
   inkscape:current-layer="svg135" />
 <g
   id="Слой_x0020_1"
   style="fill:#000000"
   transform="matrix(0.24468573,0,0,0.24468573,9.7650888,4.612e-7)">
  <metadata
   id="CorelCorpID_0Corel-Layer" />
  <g
   id="_2828963859776"
   style="fill:#000000">
   <path
   fill="#292525"
   fill-rule="nonzero"
   d="m 287.48,74.76 c -4.34,0 -8.13,-3.19 -8.77,-7.62 -4.02,-28.16 -28.54,-49.41 -57.05,-49.41 -18.33,0 -35.74,8.85 -46.58,23.68 -2.89,3.96 -8.44,4.82 -12.38,1.93 -3.95,-2.89 -4.82,-8.44 -1.93,-12.39 C 174.93,11.56 197.69,0 221.66,0 c 37.27,0 69.35,27.79 74.61,64.64 0.69,4.84 -2.68,9.34 -7.52,10.03 -0.43,0.05 -0.85,0.09 -1.26,0.09 z"
   id="path115"
   style="fill:#000000" />
   <path
   fill="#292525"
   fill-rule="nonzero"
   d="M 416.72,177.33 H 26.6 c -3.2,0 -6.14,-1.72 -7.72,-4.5 -1.57,-2.78 -1.53,-6.19 0.11,-8.93 l 26.6,-44.33 c 1.6,-2.67 4.49,-4.31 7.6,-4.31 H 67.6 c 4.89,0 8.86,3.97 8.86,8.87 0,4.89 -3.97,8.86 -8.86,8.86 h -9.39 l -15.96,26.6 h 358.81 l -15.96,-26.6 h -20.47 c -4.9,0 -8.87,-3.97 -8.87,-8.86 0,-4.89 3.97,-8.87 8.87,-8.87 h 25.49 c 3.12,0 6,1.63 7.6,4.31 l 26.6,44.33 c 1.65,2.74 1.68,6.15 0.11,8.93 -1.57,2.78 -4.52,4.5 -7.72,4.5 z"
   id="path117"
   style="fill:#000000" />
   <path
   fill="#292525"
   fill-rule="nonzero"
   d="m 354.31,173.92 c -0.67,0 -1.35,-0.08 -2.03,-0.24 -4.77,-1.11 -7.73,-5.88 -6.61,-10.65 l 16.28,-69.6 -103.6,-24.23 -7.1,30.33 c -1.11,4.77 -5.89,7.73 -10.65,6.61 -4.77,-1.11 -7.73,-5.88 -6.61,-10.65 l 9.12,-38.96 c 0.54,-2.29 1.96,-4.27 3.95,-5.51 2,-1.24 4.41,-1.64 6.7,-1.1 l 120.87,28.27 c 2.29,0.53 4.27,1.95 5.51,3.96 1.24,2 1.64,4.4 1.1,6.69 l -18.3,78.23 c -0.95,4.09 -4.59,6.85 -8.62,6.85 z"
   id="path119"
   style="fill:#000000" />
   <path
   fill="#292525"
   fill-rule="nonzero"
   d="m 74.63,176.18 c -4.44,0 -8.26,-3.32 -8.8,-7.83 L 52.36,54.39 c -0.57,-4.86 2.9,-9.27 7.76,-9.85 l 148.3,-17.53 c 2.34,-0.27 4.68,0.39 6.53,1.84 1.85,1.45 3.04,3.59 3.31,5.92 l 8.08,68.33 c 0.57,4.87 -2.91,9.27 -7.76,9.85 -4.89,0.55 -9.27,-2.9 -9.85,-7.77 L 201.7,45.66 71.01,61.11 83.44,166.27 c 0.57,4.87 -2.9,9.27 -7.76,9.85 -0.36,0.04 -0.71,0.06 -1.05,0.06 z"
   id="path121"
   style="fill:#000000" />
   <path
   fill="#292525"
   fill-rule="nonzero"
   d="m 287.84,176.03 c -4,0 -7.64,-2.73 -8.61,-6.79 l -15.53,-64.56 -125.59,30.2 6.73,27.96 c 1.14,4.76 -1.79,9.55 -6.55,10.7 -4.76,1.15 -9.55,-1.78 -10.69,-6.55 l -8.8,-36.58 c -1.14,-4.76 1.79,-9.55 6.55,-10.69 L 268.18,85.37 c 2.3,-0.55 4.7,-0.17 6.7,1.05 2,1.23 3.44,3.2 3.99,5.49 l 17.6,73.18 c 1.14,4.76 -1.79,9.55 -6.55,10.7 -0.7,0.17 -1.4,0.25 -2.08,0.25 z"
   id="path123"
   style="fill:#000000" />
   <path
   fill="#292525"
   fill-rule="nonzero"
   d="M 18.19,505.39 H 425.11 L 408.29,177.33 H 35.01 Z m 416.26,17.73 H 8.86 c -2.43,0 -4.75,-1 -6.43,-2.76 -1.54,-1.62 -2.41,-3.77 -2.44,-5.99 v -0.23 c 0,-0.12 0,-0.23 0.01,-0.34 L 17.73,168.01 c 0.24,-4.71 4.14,-8.41 8.86,-8.41 h 390.12 c 4.72,0 8.61,3.7 8.86,8.41 L 443.3,513.8 c 0.13,2.43 -0.75,4.8 -2.42,6.56 -1.68,1.76 -4.01,2.76 -6.44,2.76 z"
   id="path125"
   style="fill:#000000" />
   <path
   fill="#292525"
   fill-rule="nonzero"
   d="m 288.16,212.79 c -4.89,0 -8.87,3.98 -8.87,8.86 0,4.89 3.98,8.87 8.87,8.87 4.89,0 8.87,-3.98 8.87,-8.87 0,-4.89 -3.98,-8.86 -8.87,-8.86 z m 0,35.46 c -14.67,0 -26.6,-11.93 -26.6,-26.6 0,-14.67 11.93,-26.6 26.6,-26.6 14.67,0 26.6,11.93 26.6,26.6 0,14.67 -11.93,26.6 -26.6,26.6 z"
   id="path127"
   style="fill:#000000" />
   <path
   fill="#292525"
   fill-rule="nonzero"
   d="m 155.16,212.79 c -4.89,0 -8.87,3.98 -8.87,8.86 0,4.89 3.98,8.87 8.87,8.87 4.89,0 8.87,-3.98 8.87,-8.87 0,-4.89 -3.98,-8.86 -8.87,-8.86 z m 0,35.46 c -14.67,0 -26.6,-11.93 -26.6,-26.6 0,-14.67 11.93,-26.6 26.6,-26.6 14.67,0 26.6,11.93 26.6,26.6 0,14.67 -11.93,26.6 -26.6,26.6 z"
   id="path129"
   style="fill:#000000" />
   <path
   fill="#292525"
   fill-rule="nonzero"
   d="m 221.66,354.66 c -41.56,0 -75.36,-33.81 -75.36,-75.37 v -48.76 c 0,-4.9 3.97,-8.87 8.87,-8.87 4.89,0 8.87,3.97 8.87,8.87 v 48.76 c 0,31.78 25.85,57.63 57.63,57.63 31.78,0 57.63,-25.86 57.63,-57.63 v -45.35 c -0.44,-1.05 -0.68,-2.2 -0.68,-3.42 0,-4.9 3.97,-8.87 8.87,-8.87 h 0.68 c 4.89,0 8.87,3.97 8.87,8.87 v 48.76 c 0,41.56 -33.81,75.37 -75.37,75.37 z"
   id="path131"
   style="fill:#000000" />
  </g>
 </g>
</svg>
