<?xml version="1.0" encoding="UTF-8" standalone="no"?>
<svg
   xmlns:dc="http://purl.org/dc/elements/1.1/"
   xmlns:cc="http://creativecommons.org/ns#"
   xmlns:rdf="http://www.w3.org/1999/02/22-rdf-syntax-ns#"
   xmlns:svg="http://www.w3.org/2000/svg"
   xmlns="http://www.w3.org/2000/svg"
   xmlns:sodipodi="http://sodipodi.sourceforge.net/DTD/sodipodi-0.dtd"
   xmlns:inkscape="http://www.inkscape.org/namespaces/inkscape"
   xml:space="preserve"
   width="128"
   height="128"
   version="1.0"
   shape-rendering="geometricPrecision"
   text-rendering="geometricPrecision"
   image-rendering="optimizeQuality"
   fill-rule="evenodd"
   clip-rule="evenodd"
   viewBox="0 0 128 128"
   id="svg36"
   sodipodi:docname="sport.svg"
   inkscape:version="1.0.2-2 (e86c870879, 2021-01-15)"><metadata
   id="metadata42"><rdf:RDF><cc:Work
       rdf:about=""><dc:format>image/svg+xml</dc:format><dc:type
         rdf:resource="http://purl.org/dc/dcmitype/StillImage" /><dc:title></dc:title></cc:Work></rdf:RDF></metadata><defs
   id="defs40" /><sodipodi:namedview
   pagecolor="#ffffff"
   bordercolor="#666666"
   borderopacity="1"
   objecttolerance="10"
   gridtolerance="10"
   guidetolerance="10"
   inkscape:pageopacity="0"
   inkscape:pageshadow="2"
   inkscape:window-width="1920"
   inkscape:window-height="1027"
   id="namedview38"
   showgrid="false"
   units="px"
   inkscape:zoom="0.35181315"
   inkscape:cx="-31.48542"
   inkscape:cy="515.12303"
   inkscape:window-x="-8"
   inkscape:window-y="22"
   inkscape:window-maximized="1"
   inkscape:current-layer="svg36" />
 <g
   id="Слой_x0020_1"
   transform="matrix(0.15058514,0,0,0.15058514,-3.7646285e-4,0)">
  <metadata
   id="CorelCorpID_0Corel-Layer" />
  <g
   id="_2828974066624">
   <path
   fill="#000000"
   fill-rule="nonzero"
   d="m 806.14,487.46 c 21.8,-37.46 36.33,-79.66 41.62,-124.64 0.02,-0.14 0.03,-0.28 0.05,-0.43 1.44,-12.38 2.21,-24.98 2.21,-37.75 0,-84.32 -32.32,-161.23 -85.21,-219 -0.84,-1.18 -1.84,-2.26 -2.96,-3.18 C 727.49,65.91 684.79,37.3 636.81,19.71 635.95,19.32 635.05,19 634.14,18.76 600.12,6.63 563.52,0 525.39,0 482.86,0 442.22,8.24 404.96,23.17 c -1.01,0.31 -1.98,0.71 -2.93,1.2 -45.81,18.89 -86.38,47.97 -118.88,84.39 -1.06,0.94 -2.01,2 -2.81,3.16 -49.55,57.02 -79.59,131.42 -79.59,212.71 0,12.19 0.7,24.22 2.02,36.06 0.01,0.15 0.03,0.29 0.05,0.43 2.41,21.49 6.93,42.35 13.35,62.37 L 41.78,597.88 c -6.49,6.49 -6.49,17 0,23.48 3.24,3.24 7.49,4.87 11.74,4.87 4.25,0 8.5,-1.62 11.73,-4.87 L 229.18,457.43 c 4.56,10.14 9.63,20.01 15.18,29.56 0.51,1.14 1.15,2.21 1.89,3.2 41.15,69.11 107.23,121.72 185.73,145.35 L 315.03,752.49 c -6.48,6.49 -6.48,17 0,23.48 3.24,3.24 7.5,4.87 11.74,4.87 4.25,0 8.5,-1.62 11.74,-4.87 L 469.97,644.51 c 18.02,3.11 36.53,4.75 55.41,4.75 118.26,0 221.94,-63.57 278.69,-158.33 0.83,-1.08 1.53,-2.24 2.07,-3.49 z m -143.64,0.65 -59.06,-90.9 31.4,-96.66 74.65,-16.76 19.42,-4.36 84.87,87.16 c -5.16,35.62 -16.78,69.17 -33.64,99.43 l -117.65,22.1 z M 447.33,397.21 388.29,488.06 270.28,465.42 C 253.37,434.91 241.79,401.05 236.77,365.13 l 84.98,-85.72 94.17,21.15 20.93,64.41 10.48,32.25 z m -163.6,-235.32 14.97,93.6 -64.71,65.27 c 0.77,-58.75 18.99,-113.37 49.73,-158.87 z m 193.9,221.12 -29.33,-90.25 76.77,-55.77 76.77,55.78 -29.33,90.25 h -94.89 z m 339.15,-60.95 -65.05,-66.8 11.5,-98.86 c 33.27,46.9 53.01,104.03 53.55,165.66 z M 733.9,121.25 719.21,247.58 683.49,255.6 625.66,268.58 542.29,208.01 V 118.13 L 632.4,53.55 c 38.53,15.27 73.03,38.52 101.51,67.7 z M 592.78,41.08 524.67,89.89 448.74,43.44 c 24.43,-6.66 50.12,-10.25 76.63,-10.25 23.2,0 45.76,2.74 67.41,7.89 z m -184.33,16.63 100.01,61.2 v 89.1 l -58.8,42.72 -24.56,17.85 -94.06,-21.11 -19.32,-120.8 C 338.73,97.54 371.6,73.92 408.46,57.72 Z m -112.5,446.44 89.58,17.2 45.62,79.08 c -53.9,-18.46 -100.72,-52.31 -135.2,-96.28 z m 180.14,107.73 -60.51,-104.89 58.99,-90.77 h 101.61 l 58.99,90.77 -60.5,104.88 c -16.03,2.75 -32.5,4.19 -49.29,4.19 -16.8,0.01 -33.26,-1.44 -49.28,-4.18 z m 143.51,-11.45 45.6,-79.05 89.23,-16.76 c -34.44,43.74 -81.13,77.41 -134.83,95.81 z"
   id="path28" />
   <path
   fill="#000000"
   fill-rule="nonzero"
   d="M 228.65,597.89 4.87,821.68 c -6.49,6.49 -6.49,17 0,23.48 3.24,3.23 7.49,4.86 11.73,4.86 4.25,0 8.5,-1.62 11.74,-4.87 L 252.13,621.37 c 6.48,-6.49 6.48,-17 0,-23.48 -6.49,-6.48 -17,-6.48 -23.48,0 z"
   id="path30" />
   <path
   fill="#000000"
   fill-rule="nonzero"
   d="m 275.84,798.57 c -4.36,0 -8.64,1.78 -11.73,4.87 -3.09,3.09 -4.87,7.37 -4.87,11.75 0,4.36 1.78,8.63 4.87,11.72 3.09,3.11 7.37,4.88 11.73,4.88 4.37,0 8.65,-1.77 11.74,-4.88 3.09,-3.09 4.86,-7.36 4.86,-11.72 0,-4.39 -1.77,-8.67 -4.86,-11.75 -3.09,-3.09 -7.37,-4.87 -11.74,-4.87 z"
   id="path32" />
  </g>
 </g>
</svg>
