<?xml version="1.0" encoding="UTF-8" standalone="no"?>
<svg
   xmlns:dc="http://purl.org/dc/elements/1.1/"
   xmlns:cc="http://creativecommons.org/ns#"
   xmlns:rdf="http://www.w3.org/1999/02/22-rdf-syntax-ns#"
   xmlns:svg="http://www.w3.org/2000/svg"
   xmlns="http://www.w3.org/2000/svg"
   xmlns:sodipodi="http://sodipodi.sourceforge.net/DTD/sodipodi-0.dtd"
   xmlns:inkscape="http://www.inkscape.org/namespaces/inkscape"
   xml:space="preserve"
   width="128"
   height="128"
   version="1.0"
   shape-rendering="geometricPrecision"
   text-rendering="geometricPrecision"
   image-rendering="optimizeQuality"
   fill-rule="evenodd"
   clip-rule="evenodd"
   viewBox="0 0 128 128"
   id="svg1114"
   sodipodi:docname="truck.svg"
   inkscape:version="1.0.2-2 (e86c870879, 2021-01-15)"><metadata
   id="metadata1120"><rdf:RDF><cc:Work
       rdf:about=""><dc:format>image/svg+xml</dc:format><dc:type
         rdf:resource="http://purl.org/dc/dcmitype/StillImage" /><dc:title></dc:title></cc:Work></rdf:RDF></metadata><defs
   id="defs1118" /><sodipodi:namedview
   pagecolor="#ffffff"
   bordercolor="#666666"
   borderopacity="1"
   objecttolerance="10"
   gridtolerance="10"
   guidetolerance="10"
   inkscape:pageopacity="0"
   inkscape:pageshadow="2"
   inkscape:window-width="1920"
   inkscape:window-height="1027"
   id="namedview1116"
   showgrid="false"
   units="px"
   inkscape:zoom="0.40254839"
   inkscape:cx="-829.52087"
   inkscape:cy="592.84015"
   inkscape:window-x="-8"
   inkscape:window-y="22"
   inkscape:window-maximized="1"
   inkscape:current-layer="svg1114" />
 <g
   id="Слой_x0020_1"
   transform="matrix(0.25305895,0,0,0.25305895,2.5294838e-4,26.594091)">
  <metadata
   id="CorelCorpID_0Corel-Layer" />
  <path
   fill="#000000"
   d="m 449.35,246.14 c -4.03,27.98 -28.63,49.49 -57.27,49.49 -29.06,0 -53.3,-21.19 -57.28,-49.49 H 169.47 c -3.98,28.29 -28.22,49.49 -57.28,49.49 -29.06,0 -53.3,-21.19 -57.28,-49.49 H 27.82 c -7.64,0 -13.95,-6.31 -13.95,-13.95 0,-7.64 6.31,-13.96 13.95,-13.96 h 29.75 c 2.11,-5.35 4.94,-10.48 8.39,-15.11 -5.45,-0.29 -10.17,-3.55 -12.62,-8.43 L 53.22,194.45 1.37,55.12 C -1.03,50.95 -0.05,45.89 2.54,42 5.17,38.05 9.22,35.7 14.02,35.7 H 220.4 L 251.41,3.91 C 254.04,1.28 257.78,0 261.46,0 h 49.49 c 0.54,0 1.08,0 1.62,0 0.54,0 1.08,0 1.62,0 h 35.69 c 7.64,0 13.95,6.31 13.95,13.95 0,7.64 -6.31,13.95 -13.95,13.95 H 325.7 v 161.28 c 0,7.64 -6.31,13.95 -13.95,13.95 H 157.97 c 3.38,4.57 5.99,9.68 8.05,15.09 H 330.25 V 46.39 c 0,-7.64 6.31,-13.95 13.95,-13.95 h 55.98 c 6.31,0 11.29,3.88 13.6,9.65 l 0.07,0.17 21.33,67.15 46.76,24.16 c 4.81,2.4 7.65,7.29 7.65,12.61 v 72.04 h 1.46 c 7.94,0 14.76,5.83 14.76,13.96 0,7.64 -6.31,13.95 -13.95,13.95 H 449.35 Z M 34.27,64.41 75.92,175.23 h 67.39 l -30.94,-67.76 -0.08,-0.25 c -2.44,-7.31 0.43,-14.78 7.39,-18.26 l 0.32,-0.16 0.34,-0.11 c 7.31,-2.43 14.78,0.43 18.34,7.56 l 35.97,78.99 h 57.09 l -30.94,-67.76 -0.08,-0.25 c -2.44,-7.31 0.43,-14.78 7.39,-18.26 l 0.32,-0.16 0.34,-0.11 c 7.31,-2.43 14.78,0.43 18.34,7.56 l 35.97,78.99 h 34.73 V 28.73 h -29.36 l -31.01,31.79 c -2.63,2.63 -6.37,3.91 -10.05,3.91 H 34.27 Z m 77.11,203.31 c 16.31,0 29.04,-12.77 29.04,-29.04 0,-15.88 -13.16,-29.04 -29.04,-29.04 -15.88,0 -29.04,13.16 -29.04,29.04 0,15.88 13.16,29.04 29.04,29.04 z m 279.89,0 c 16.31,0 29.04,-12.77 29.04,-29.04 0,-15.88 -13.16,-29.04 -29.04,-29.04 -15.88,0 -29.04,13.16 -29.04,29.04 0,15.88 13.16,29.04 29.04,29.04 z m 54.78,-48.68 h 15.64 v -63.28 l -45.38,-23.07 -0.25,-0.17 c -3.19,-2.12 -5.62,-4.58 -6.87,-8.34 L 389.21,61.17 h -31.85 v 129.84 c 9.78,-7.06 21.56,-10.91 33.91,-10.91 25,0 46.54,15.76 54.78,38.94 z"
   id="path1111" />
 </g>
</svg>
