<?xml version="1.0" encoding="UTF-8" standalone="no"?>
<svg
   xmlns:dc="http://purl.org/dc/elements/1.1/"
   xmlns:cc="http://creativecommons.org/ns#"
   xmlns:rdf="http://www.w3.org/1999/02/22-rdf-syntax-ns#"
   xmlns:svg="http://www.w3.org/2000/svg"
   xmlns="http://www.w3.org/2000/svg"
   xmlns:sodipodi="http://sodipodi.sourceforge.net/DTD/sodipodi-0.dtd"
   xmlns:inkscape="http://www.inkscape.org/namespaces/inkscape"
   xml:space="preserve"
   width="128"
   height="128"
   version="1.0"
   shape-rendering="geometricPrecision"
   text-rendering="geometricPrecision"
   image-rendering="optimizeQuality"
   fill-rule="evenodd"
   clip-rule="evenodd"
   viewBox="0 0 128 128"
   id="svg1090"
   sodipodi:docname="wood.svg"
   inkscape:version="1.0.2-2 (e86c870879, 2021-01-15)"><metadata
   id="metadata1096"><rdf:RDF><cc:Work
       rdf:about=""><dc:format>image/svg+xml</dc:format><dc:type
         rdf:resource="http://purl.org/dc/dcmitype/StillImage" /><dc:title></dc:title></cc:Work></rdf:RDF></metadata><defs
   id="defs1094" /><sodipodi:namedview
   pagecolor="#ffffff"
   bordercolor="#666666"
   borderopacity="1"
   objecttolerance="10"
   gridtolerance="10"
   guidetolerance="10"
   inkscape:pageopacity="0"
   inkscape:pageshadow="2"
   inkscape:window-width="1920"
   inkscape:window-height="1027"
   id="namedview1092"
   showgrid="false"
   units="px"
   inkscape:zoom="0.7195585"
   inkscape:cx="-429.85438"
   inkscape:cy="220.66431"
   inkscape:window-x="-8"
   inkscape:window-y="22"
   inkscape:window-maximized="1"
   inkscape:current-layer="svg1090" />
 <g
   id="Слой_x0020_1"
   transform="matrix(0.40471749,0,0,0.40471749,-2.8114999e-7,10.322319)">
  <metadata
   id="CorelCorpID_0Corel-Layer" />
  <path
   fill="#000000"
   d="m 31.51,131.59 c -6.78,3.6 -12.54,8.57 -17.2,14.67 C 3.79,160.04 0,177.98 0,195.02 c 0,17.06 3.79,35 14.3,48.82 11.23,14.77 27.59,21.42 45.95,21.42 h 185.74 c 38.74,0 70.28,-31.49 70.28,-70.23 0,-23.65 -11.89,-45.55 -31.55,-58.57 l -2.21,-1.47 2.34,-1.25 c 6.75,-3.61 12.48,-8.59 17.12,-14.68 10.51,-13.81 14.3,-31.76 14.3,-48.82 0,-17.06 -3.79,-35.01 -14.3,-48.82 C 290.74,6.65 274.38,0 256.02,0 H 70.28 C 31.54,0 0,31.49 0,70.23 c 0,23.69 11.93,45.62 31.64,58.63 l 2.23,1.47 -2.36,1.25 z M 256.02,15.55 c 13.44,0 25.31,4.42 33.58,15.28 3.9,5.12 6.57,11.09 8.31,17.26 l 0.57,2.01 h -73.59 c -4.3,0 -7.77,3.48 -7.77,7.77 0,4.29 3.48,7.77 7.77,7.77 h 75.75 l 0.05,1.54 c 0.03,1.01 0.05,2.03 0.05,3.05 0,13.56 -2.74,28.38 -11.13,39.4 -8.26,10.86 -20.14,15.28 -33.58,15.28 h -141.5 l 3.03,-2.76 c 14.66,-13.35 23.01,-32.08 23.01,-51.93 0,-7.65 -1.24,-15.23 -3.69,-22.48 l -0.71,-2.09 h 22.44 c 4.3,0 7.77,-3.48 7.77,-7.77 0,-4.29 -3.48,-7.77 -7.77,-7.77 h -30.66 l -0.47,-0.66 c -2.9,-4.05 -6.23,-7.79 -9.91,-11.15 l -3.03,-2.76 h 141.5 z M 15.55,70.24 c 0,-30.17 24.57,-54.69 54.73,-54.69 30.16,0 54.73,24.52 54.73,54.69 0,30.17 -24.57,54.69 -54.73,54.69 -30.16,0 -54.73,-24.51 -54.73,-54.69 z m 44.71,179.47 c -13.44,0 -25.32,-4.42 -33.58,-15.28 -8.39,-11.02 -11.13,-25.84 -11.13,-39.4 0,-1.02 0.02,-2.03 0.05,-3.05 l 0.05,-1.54 H 91.4 c 4.29,0 7.78,-3.48 7.78,-7.77 0,-4.3 -3.48,-7.77 -7.78,-7.77 H 17.81 l 0.57,-2.01 c 1.74,-6.15 4.41,-12.08 8.3,-17.18 8.27,-10.84 20.16,-15.22 33.58,-15.22 H 201.6 l -3.01,2.75 c -3.63,3.32 -6.91,7.01 -9.77,11.01 l -0.47,0.66 h -30.66 c -4.29,0 -7.77,3.48 -7.77,7.78 0,4.29 3.48,7.77 7.77,7.77 h 22.44 l -0.71,2.09 c -2.46,7.24 -3.69,14.83 -3.69,22.48 0,19.85 8.35,38.59 23.01,51.93 l 3.03,2.76 H 60.27 Z m 185.74,0 c -30.16,0 -54.73,-24.52 -54.73,-54.68 0,-28.73 22.39,-52.62 51.13,-54.55 h 7.3 c 28.64,1.92 51.03,25.82 51.03,54.54 0,30.17 -24.57,54.68 -54.73,54.68 z M 159.09,95.29 c 0,4.29 3.48,7.77 7.77,7.77 h 79.27 c 4.29,0 7.78,-3.48 7.78,-7.77 0,-4.3 -3.48,-7.77 -7.78,-7.77 h -79.27 c -4.3,0 -7.77,3.48 -7.77,7.77 z m -88.8,7.77 c 18.1,0 32.84,-14.72 32.84,-32.82 0,-18.1 -14.74,-32.83 -32.84,-32.83 -18.1,0 -32.85,14.72 -32.85,32.83 0,18.11 14.74,32.82 32.85,32.82 z m 0,-50.1 c 9.53,0 17.29,7.74 17.29,17.28 0,9.53 -7.76,17.28 -17.29,17.28 -9.53,0 -17.3,-7.74 -17.3,-17.28 0,-9.53 7.77,-17.28 17.3,-17.28 z m 79.14,159.33 H 70.16 c -4.3,0 -7.78,3.48 -7.78,7.77 0,4.29 3.48,7.77 7.78,7.77 h 79.27 c 4.29,0 7.77,-3.48 7.77,-7.77 0,-4.3 -3.48,-7.77 -7.77,-7.77 z m 96.58,-50.1 c -18.1,0 -32.84,14.72 -32.84,32.83 0,18.1 14.74,32.82 32.84,32.82 18.1,0 32.85,-14.72 32.85,-32.82 0,-18.11 -14.74,-32.83 -32.85,-32.83 z m 0,50.1 c -9.53,0 -17.29,-7.74 -17.29,-17.28 0,-9.53 7.76,-17.28 17.29,-17.28 9.53,0 17.3,7.74 17.3,17.28 0,9.53 -7.77,17.28 -17.3,17.28 z"
   id="path1087" />
 </g>
</svg>
